<svg xmlns="http://www.w3.org/2000/svg" viewBox="0 -0.5 144 144" shape-rendering="crispEdges">
<metadata>Made with Pix2d https://pix2d.com</metadata>
<path stroke="#d0e7f0" d="M0 0h144M0 1h144M0 2h144M0 3h144M0 4h144M0 5h144M0 6h144M0 7h144M0 8h144M0 9h144M0 10h144M0 11h144M0 12h144M0 13h144M0 14h144M0 15h144M0 16h144M0 17h144M0 18h144M0 19h144M0 20h144M0 21h144M0 22h144M0 23h144M0 24h144M0 25h144M0 26h144M0 27h144M0 28h144M0 29h144M0 30h144M0 31h144M0 32h144M0 33h144M0 34h144M0 35h144M0 36h63M87 36h57M0 37h63M87 37h57M0 38h63M87 38h57M0 39h60M90 39h54M0 40h60M90 40h54M0 41h60M90 41h54M0 42h57M93 42h51M0 43h57M93 43h51M0 44h57M93 44h51M0 45h57M93 45h51M0 46h57M93 46h51M0 47h57M93 47h51M0 48h57M93 48h51M0 49h57M93 49h51M0 50h57M93 50h51M0 51h57M93 51h51M0 52h57M93 52h51M0 53h57M93 53h51M0 54h57M93 54h51M0 55h57M93 55h51M0 56h57M93 56h51M0 57h57M93 57h51M0 58h57M93 58h51M0 59h57M93 59h51M0 60h60M93 60h51M0 61h60M93 61h51M0 62h60M93 62h51M0 63h60M93 63h51M0 64h60M93 64h51M0 65h60M93 65h51M0 66h57M90 66h54M0 67h57M90 67h54M0 68h57M90 68h54M0 69h45M96 69h48M0 70h45M96 70h48M0 71h45M96 71h48M0 72h42M99 72h45M0 73h42M99 73h45M0 74h42M99 74h45M0 75h39M102 75h42M0 76h39M102 76h42M0 77h39M102 77h42M0 78h30M33 78h3M105 78h39M0 79h30M33 79h3M105 79h39M0 80h30M33 80h3M105 80h39M0 81h30M105 81h39M0 82h30M105 82h39M0 83h30M105 83h39M0 84h33M105 84h39M0 85h33M105 85h39M0 86h33M105 86h39M0 87h36M105 87h39M0 88h36M105 88h39M0 89h36M105 89h39M0 90h39M102 90h42M0 91h39M102 91h42M0 92h39M102 92h42" />
<path stroke="#cc9c49" d="M63 36h24M63 37h24M63 38h24M60 39h3M87 39h3M60 40h3M87 40h3M60 41h3M87 41h3M75 45h3M75 46h3M75 47h3M78 48h3M78 49h3M78 50h3M78 51h3M78 52h3M78 53h3M72 54h6M72 55h6M72 56h6M72 63h9M72 64h9M72 65h9M57 66h3M57 67h3M57 68h3M45 69h15M87 69h9M45 70h15M87 70h9M45 71h15M87 71h9M42 72h3M54 72h3M75 72h3M93 72h6M42 73h3M54 73h3M75 73h3M93 73h6M42 74h3M54 74h3M75 74h3M93 74h6M39 75h3M51 75h3M75 75h3M96 75h6M39 76h3M51 76h3M75 76h3M96 76h6M39 77h3M51 77h3M75 77h3M96 77h6M36 78h3M51 78h3M63 78h12M99 78h6M36 79h3M51 79h3M63 79h12M99 79h6M36 80h3M51 80h3M63 80h12M99 80h6M36 81h3M48 81h3M60 81h3M102 81h3M36 82h3M48 82h3M60 82h3M102 82h3M36 83h3M48 83h3M60 83h3M102 83h3M36 84h3M51 84h3M90 84h3M102 84h3M36 85h3M51 85h3M90 85h3M102 85h3M36 86h3M51 86h3M90 86h3M102 86h3M36 87h3M90 87h3M99 87h6M36 88h3M90 88h3M99 88h6M36 89h3M90 89h3M99 89h6M39 90h3M90 90h12M39 91h3M90 91h12M39 92h3M90 92h12M42 93h9M78 93h3M87 93h3M42 94h9M78 94h3M87 94h3M42 95h9M78 95h3M87 95h3M51 96h3M87 96h3M51 97h3M87 97h3M51 98h3M87 98h3M51 99h3M90 99h6M51 100h3M90 100h6M51 101h3M90 101h6M48 102h3M96 102h3M48 103h3M96 103h3M48 104h3M96 104h3M48 105h18M81 105h18M48 106h18M81 106h18M48 107h18M81 107h18" />
<path stroke="#ebd1a5" d="M63 39h6M63 40h6M63 41h6M63 42h3M63 43h3M63 44h3M45 72h3M57 72h3M90 72h3M45 73h3M57 73h3M90 73h3M45 74h3M57 74h3M90 74h3M42 75h3M42 76h3M42 77h3" />
<path stroke="#e2b362" d="M69 39h18M69 40h18M69 41h18M60 42h3M66 42h3M75 42h6M87 42h3M60 43h3M66 43h3M75 43h6M87 43h3M60 44h3M66 44h3M75 44h6M87 44h3M60 45h9M78 45h3M87 45h3M60 46h9M78 46h3M87 46h3M60 47h9M78 47h3M87 47h3M60 48h18M81 48h9M60 49h18M81 49h9M60 50h18M81 50h9M63 51h15M81 51h6M63 52h15M81 52h6M63 53h15M81 53h6M66 54h6M78 54h9M66 55h6M78 55h9M66 56h6M78 56h9M69 63h3M81 63h3M69 64h3M81 64h3M69 65h3M81 65h3M60 69h6M60 70h6M60 71h6M48 72h6M60 72h15M78 72h6M48 73h6M60 73h15M78 73h6M48 74h6M60 74h15M78 74h6M45 75h6M57 75h18M78 75h3M93 75h3M45 76h6M57 76h18M78 76h3M93 76h3M45 77h6M57 77h18M78 77h3M93 77h3M39 78h12M57 78h6M93 78h6M39 79h12M57 79h6M93 79h6M39 80h12M57 80h6M93 80h6M39 81h9M54 81h6M93 81h9M39 82h9M54 82h6M93 82h9M39 83h9M54 83h6M93 83h9M39 84h12M93 84h9M39 85h12M93 85h9M39 86h12M93 86h9M39 87h9M93 87h6M39 88h9M93 88h6M39 89h9M93 89h6M42 90h3M42 91h3M42 92h3M81 93h6M81 94h6M81 95h6M81 96h6M81 97h6M81 98h6M54 99h3M84 99h6M54 100h3M84 100h6M54 101h3M84 101h6M51 102h9M84 102h12M51 103h9M84 103h12M51 104h9M84 104h12" />
<path stroke="#94480a" d="M57 42h3M90 42h3M57 43h3M90 43h3M57 44h3M90 44h3M57 45h3M90 45h3M57 46h3M90 46h3M57 47h3M90 47h3M57 48h3M90 48h3M57 49h3M90 49h3M57 50h3M90 50h3M57 51h6M87 51h6M57 52h6M87 52h6M57 53h6M87 53h6M57 54h9M87 54h6M57 55h9M87 55h6M57 56h9M87 56h6M57 57h36M57 58h36M57 59h36M60 60h9M84 60h9M60 61h9M84 61h9M60 62h9M84 62h9M60 63h9M84 63h9M60 64h9M84 64h9M60 65h9M84 65h9M60 66h30M60 67h30M60 68h30M66 69h21M66 70h21M66 71h21" />
<path stroke="#ffffff" d="M69 42h6M81 42h6M69 43h6M81 43h6M69 44h6M81 44h6M69 45h3M81 45h3M69 46h3M81 46h3M69 47h3M81 47h3" />
<path stroke="#020202" d="M72 45h3M84 45h3M72 46h3M84 46h3M72 47h3M84 47h3M72 60h6M72 61h6M72 62h6" />
<path stroke="#fcfcfb" d="M69 60h3M78 60h6M69 61h3M78 61h6M69 62h3M78 62h6" />
<path stroke="#ffd902" d="M84 72h3M84 73h3M84 74h3M81 75h6M81 76h6M81 77h6M78 78h6M78 79h6M78 80h6M63 81h21M63 82h21M63 83h21M54 84h9M66 84h15M54 85h9M66 85h15M54 86h9M66 86h15M57 87h18M57 88h18M57 89h18" />
<path stroke="#a18318" d="M87 72h3M87 73h3M87 74h3M87 75h3M87 76h3M87 77h3M84 78h6M84 79h6M84 80h6M84 81h6M84 82h6M84 83h6M81 84h9M81 85h9M81 86h9M75 87h9M87 87h3M75 88h9M87 88h3M75 89h9M87 89h3M66 90h24M66 91h24M66 92h24" />
<path stroke="#88662c" d="M54 75h3M54 76h3M54 77h3M54 78h3M54 79h3M54 80h3M51 81h3M51 82h3M51 83h3" />
<path stroke="#79581f" d="M90 75h3M90 76h3M90 77h3M90 78h3M90 79h3M90 80h3M90 81h3M90 82h3M90 83h3" />
<path stroke="#734a27" d="M30 78h3M30 79h3M30 80h3M51 90h6M51 91h6M51 92h6M54 93h12M54 94h12M54 95h12M57 96h3M63 96h6M57 97h3M63 97h6M57 98h3M63 98h6M60 99h12M75 99h6M60 100h12M75 100h6M60 101h12M75 101h6M66 102h12M66 103h12M66 104h12" />
<path stroke="#4c4015" d="M75 78h3M75 79h3M75 80h3M63 84h3M63 85h3M63 86h3M84 87h3M84 88h3M84 89h3" />
<path stroke="#613a18" d="M30 81h6M30 82h6M30 83h6M33 84h3M33 85h3M33 86h3M48 87h9M48 88h9M48 89h9M45 90h6M57 90h9M45 91h6M57 91h9M45 92h6M57 92h9M51 93h3M66 93h12M51 94h3M66 94h12M51 95h3M66 95h12M54 96h3M60 96h3M78 96h3M54 97h3M60 97h3M78 97h3M54 98h3M60 98h3M78 98h3M57 99h3M72 99h3M81 99h3M57 100h3M72 100h3M81 100h3M57 101h3M72 101h3M81 101h3M60 102h6M78 102h6M60 103h6M78 103h6M60 104h6M78 104h6M66 105h15M66 106h15M66 107h15" />
<path stroke="#dcc196" d="M0 93h42M90 93h54M0 94h42M90 94h54M0 95h42M90 95h54M0 96h51M90 96h54M0 97h51M90 97h54M0 98h51M90 98h54M0 99h51M96 99h48M0 100h51M96 100h48M0 101h51M96 101h48M0 102h48M102 102h42M0 103h48M102 103h42M0 104h48M102 104h42M0 105h48M108 105h36M0 106h48M108 106h36M0 107h48M108 107h36M0 108h54M114 108h30M0 109h54M114 109h30M0 110h54M114 110h30M0 111h60M111 111h33M0 112h60M111 112h33M0 113h60M111 113h33M0 114h144M0 115h144M0 116h144M0 117h144M0 118h144M0 119h144M0 120h144M0 121h144M0 122h144M0 123h144M0 124h144M0 125h144M0 126h144M0 127h144M0 128h144M0 129h144M0 130h144M0 131h144M0 132h144M0 133h144M0 134h144M0 135h144M0 136h144M0 137h144M0 138h144M0 139h144M0 140h144M0 141h144M0 142h144M0 143h144" />
<path stroke="#8a592d" d="M69 96h3M69 97h3M69 98h3" />
<path stroke="#a1734b" d="M72 96h6M72 97h6M72 98h6" />
<path stroke="#9a8769" d="M99 102h3M99 103h3M99 104h3M99 105h9M99 106h9M99 107h9M54 108h60M54 109h60M54 110h60M60 111h51M60 112h51M60 113h51" />
</svg>