<svg width="16" height="16" viewBox="0 0 16 16" fill="none" xmlns="http://www.w3.org/2000/svg">
<path fill-rule="evenodd" clip-rule="evenodd" d="M13.8808 0C13.3145 0 12.7821 0.223249 12.3816 0.628632L8.92943 4.12325L8.57408 3.76353C8.42586 3.61349 8.24317 3.51975 8.05177 3.48225C8.01986 3.47598 7.98773 3.47134 7.95549 3.4682C7.92325 3.46507 7.89085 3.4635 7.85851 3.4635C7.82617 3.4635 7.79377 3.46507 7.76153 3.4682C7.7293 3.47134 7.69717 3.47604 7.66525 3.48225C7.47391 3.51975 7.29116 3.61354 7.14294 3.76353C7.06886 3.83852 7.00866 3.92227 6.96233 4.01152C6.94691 4.04124 6.93297 4.0716 6.92065 4.10245C6.88361 4.19495 6.86044 4.29183 6.85115 4.38973C6.84806 4.42236 6.84651 4.45516 6.84651 4.4879C6.84651 4.55344 6.8527 4.61897 6.86503 4.68354C6.88355 4.78041 6.91595 4.87507 6.96228 4.96428C7.0086 5.05348 7.06881 5.13722 7.14289 5.21227L7.37341 5.44562L1.34127 11.5521C1.26474 11.6296 1.20448 11.7219 1.16429 11.8236L0.300186 14.0057C0.122668 14.454 -3.69951e-10 15.894 0 15.894C3.69951e-10 15.894 1.15415 16 1.62853 16C1.72823 16 1.8272 15.9895 1.92463 15.9685C2.00619 15.9509 2.08667 15.9261 2.16562 15.894L4.32118 15.0193C4.42163 14.9786 4.5129 14.9176 4.58938 14.8402L10.6216 8.73369L10.8521 8.96699C10.8768 8.99201 10.9025 9.01546 10.9289 9.03734C10.9819 9.0811 11.0383 9.1186 11.0971 9.14988C11.2439 9.22801 11.4058 9.26707 11.5677 9.26707C11.6679 9.26642 11.7634 9.25259 11.8559 9.22487C11.981 9.18738 12.1005 9.12486 12.2065 9.03734C12.233 9.01546 12.2586 8.99201 12.2833 8.96699C12.4068 8.84197 12.4917 8.69268 12.538 8.53427C12.5751 8.40757 12.5874 8.27504 12.5751 8.14439C12.5689 8.07907 12.5565 8.01429 12.538 7.95091C12.5195 7.88754 12.4948 7.82567 12.4639 7.76619C12.4176 7.67699 12.3574 7.59324 12.2833 7.51819L11.928 7.15846L15.3801 3.66384C16.2066 2.82714 16.2066 1.46549 15.38 0.628632C14.9796 0.223249 14.4471 0 13.8808 0ZM1.0744 15.1101L1.94411 12.9138L9.76159 5L11.0615 6.31593L3.24401 14.2298L1.0744 15.1101Z" fill="white"/>
</svg>
