<svg width="16" height="19" viewBox="0 0 16 19" fill="none" xmlns="http://www.w3.org/2000/svg">
<rect x="4" y="11" width="2" height="2" fill="white" fill-opacity="0.6"/>
<rect x="6" y="9" width="2" height="2" fill="white" fill-opacity="0.6"/>
<rect x="8" y="11" width="2" height="2" fill="white" fill-opacity="0.6"/>
<rect x="10" y="9" width="2" height="2" fill="white" fill-opacity="0.6"/>
<rect x="12" y="11" width="2" height="2" fill="white" fill-opacity="0.6"/>
<rect x="10" y="13" width="2" height="2" fill="white" fill-opacity="0.6"/>
<rect x="12" y="15" width="2" height="2" fill="white" fill-opacity="0.6"/>
<rect x="8" y="15" width="2" height="2" fill="white" fill-opacity="0.6"/>
<rect x="6" y="13" width="2" height="2" fill="white" fill-opacity="0.6"/>
<rect x="4" y="15" width="2" height="2" fill="white" fill-opacity="0.6"/>
<rect x="2" y="13" width="2" height="2" fill="white" fill-opacity="0.6"/>
<rect x="2" y="9" width="2" height="2" fill="white" fill-opacity="0.6"/>
<path fill-rule="evenodd" clip-rule="evenodd" d="M13 6.33333V4.52381C13 1.99048 10.8 0 8 0C5.2 0 3 1.99048 3 4.52381V6.33333H2C0.9 6.33333 0 7.14762 0 8.14286V17.1905C0 18.1857 0.9 19 2 19H14C15.1 19 16 18.1857 16 17.1905V8.14286C16 7.14762 15.1 6.33333 14 6.33333H13ZM11.1 4.7619V6.66667H5V4.7619H4.9C4.9 3.14286 6.3 1.80952 8 1.80952C9.7 1.80952 11.1 3.14286 11.1 4.7619ZM2 17V9H14V17H2Z" fill="white"/>
</svg>
