<svg width="14" height="18" viewBox="0 0 14 18" fill="none" xmlns="http://www.w3.org/2000/svg">
<path fill-rule="evenodd" clip-rule="evenodd" d="M13.5036 13.413C13.0222 12.5765 12.256 11.9637 11.4 11.7305C10.8179 11.5717 10.2267 11.6016 9.71233 11.8106L8.20331 9.17565C9.54436 6.71837 11.5306 3.08274 11.7812 2.64548C12.3943 1.57583 11.388 0.388241 11.3449 0.338567L11.0525 0L7.00035 7.07468L2.94784 0.000557618L2.65557 0.339171C2.61209 0.388799 1.60586 1.57639 2.21879 2.64618C2.46926 3.08298 4.45587 6.71865 5.79701 9.17621L4.28786 11.8111C3.77306 11.6021 3.18224 11.5722 2.59979 11.731C1.74408 11.964 0.977561 12.577 0.496608 13.4138C-0.407152 14.9907 -0.0427712 16.9018 1.30842 17.6733C1.6857 17.8901 2.1039 18 2.55129 18C2.797 18 3.05226 17.9808 3.29504 17.8982C4.74353 17.4062 5.48542 16.2243 5.84077 15.011C5.85599 14.9588 6.57065 12.0683 6.96971 11.4386C6.96971 11.4386 6.98205 11.416 7.00035 11.3822C7.0185 11.416 7.03112 11.4386 7.03112 11.4386C7.43014 12.0683 8.1447 14.9588 8.16006 15.011C8.51481 16.2242 9.2573 17.4065 10.7057 17.8982C10.9483 17.9808 11.2035 18 11.4493 18C11.8968 18 12.3148 17.8901 12.6925 17.6733C14.0429 16.9009 14.4069 14.9902 13.5036 13.413V13.413ZM4.22887 15.5471C3.92878 16.0697 3.44713 16.4642 2.94239 16.6013C2.80957 16.637 2.67875 16.6551 2.55343 16.6551C2.34389 16.6551 2.15059 16.6043 1.9795 16.5064C1.27267 16.1035 1.1318 15.0147 1.66657 14.0811C1.97112 13.5515 2.44035 13.1678 2.95221 13.0286C3.30165 12.9343 3.64005 12.9644 3.9171 13.1224C4.62333 13.5266 4.76322 14.6146 4.22887 15.5471V15.5471ZM12.0204 16.5064C11.8489 16.6046 11.6561 16.6554 11.4464 16.6554C11.3212 16.6554 11.1901 16.637 11.0576 16.6013C10.5527 16.4646 10.071 16.07 9.77108 15.5474C9.23659 14.6146 9.37658 13.5269 10.0824 13.1234C10.3598 12.9652 10.698 12.9348 11.0475 13.0296C11.5596 13.1683 12.0287 13.552 12.3331 14.0819C12.8679 15.0153 12.7273 16.1035 12.0204 16.5064V16.5064Z" fill="white"/>
</svg>
