<svg width="18" height="17" viewBox="0 0 18 17" fill="none" xmlns="http://www.w3.org/2000/svg">
<path fill-rule="evenodd" clip-rule="evenodd" d="M17.7358 11.6026C17.5503 11.3939 17.3122 11.2838 17.0476 11.2838C16.831 11.2838 16.3 11.3601 16.0418 12.0671C15.9768 12.245 15.958 12.3397 15.8703 12.33C15.7216 12.315 15.1431 11.6847 14.954 10.7592L14.4846 8.52208C14.8554 7.90938 15.2367 7.4365 15.617 7.11578C15.8213 6.94568 16.0547 6.85562 16.3372 6.84C17.0587 6.78986 17.3212 6.69729 17.4984 6.57019C17.791 6.35516 17.9518 6.04408 17.9518 5.69424C17.9518 5.38645 17.8375 5.11202 17.6208 4.90065C17.4116 4.69641 17.1327 4.58861 16.8151 4.58861C16.3484 4.58861 15.8243 4.80885 15.2125 5.26167C14.8513 5.52935 14.4683 5.91854 14.0549 6.44021C13.9204 5.92856 13.8054 5.6902 13.72 5.54768C13.4559 5.10353 13.027 5.10353 12.8859 5.10353L12.7322 5.10604L8.37381 5.21095L8.61911 4.14909C8.7757 3.45616 8.98128 2.90787 9.22922 2.51946C9.34988 2.33046 9.53446 2.10521 9.72812 2.10521C9.80132 2.10521 9.94599 2.11736 10.2164 2.17464C10.9688 2.34049 11.25 2.35958 11.3964 2.35958C11.7194 2.35958 12.0035 2.24946 12.2185 2.04118C12.4409 1.82538 12.5584 1.54304 12.5584 1.22482C12.5584 0.976041 12.4782 0.616173 12.0959 0.314161C11.8319 0.105685 11.4698 0 11.0196 0C10.3449 0 9.62978 0.220048 8.89371 0.653779C8.16332 1.08423 7.56266 1.67919 7.10877 2.42246C6.71066 3.07411 6.3657 3.98921 6.05819 5.21095H4.13745L3.71419 6.91405H5.6406L4.17679 12.9149C3.87362 14.1575 3.65159 14.4632 3.59088 14.5274C3.4254 14.7017 3.08403 14.7384 2.82683 14.7384C2.50853 14.7384 2.16924 14.7151 1.81521 14.6688C1.57199 14.6385 1.38684 14.6236 1.24954 14.6236C0.894364 14.6236 0.602169 14.7178 0.381462 14.9029C0.135412 15.1091 0 15.407 0 15.742C0 16.0037 0.0832143 16.3802 0.480184 16.686C0.751387 16.8943 1.12112 17 1.57956 17C2.72735 17 3.79703 16.535 4.75929 15.6182C5.69488 14.7264 6.38026 13.4171 6.79671 11.7235L7.95396 6.91463L11.901 6.9829L12.3254 8.84203L11.4605 10.1434C11.3047 10.3766 11.0726 10.6643 10.7687 10.9999C10.6098 11.1773 10.5043 11.2749 10.4432 11.3256C10.1943 11.0155 9.91195 10.8581 9.60501 10.8581C9.31659 10.8581 9.05466 10.9787 8.84813 11.206C8.6522 11.4213 8.54875 11.6909 8.54875 11.9848C8.54875 12.3377 8.69684 12.6519 8.97693 12.893C9.23357 13.114 9.55073 13.2262 9.91895 13.2262C10.3755 13.2262 10.8426 13.0486 11.3079 12.6984C11.6961 12.4054 12.1962 11.8255 12.8349 10.9262C13.2453 12.1296 13.8274 12.9034 14.1046 13.2264C14.5421 13.7363 15.2486 14.0402 15.9945 14.0402C16.6277 14.0402 16.9863 13.7699 17.3025 13.5309L17.3305 13.5099C17.8839 13.0926 18 12.6334 18 12.3208C17.9996 12.044 17.9083 11.796 17.7358 11.6026V11.6026Z" fill="white"/>
</svg>
