<?xml version="1.0" encoding="utf-8"?>
<svg width="18px" height="18px" viewBox="0 0 18 18" version="1.1" xmlns:xlink="http://www.w3.org/1999/xlink" xmlns="http://www.w3.org/2000/svg">
  <desc>Created with Lunacy</desc>
  <path d="M18 0L0 0L0 18L18 18L18 0ZM2 2L16 2L16 16L2 16L2 2ZM14 6.5C14 7.32843 13.3284 8 12.5 8C11.6716 8 11 7.32843 11 6.5C11 5.67157 11.6716 5 12.5 5C13.3284 5 14 5.67157 14 6.5ZM8 6L4 13L14 13L11.5 9L10.5672 10.4925L8 6Z" id="gallery" fill="#FFFFFF" fill-rule="evenodd" stroke="none" />
</svg>