<svg width="18" height="20" viewBox="0 0 18 20" fill="none" xmlns="http://www.w3.org/2000/svg">
<path fill-rule="evenodd" clip-rule="evenodd" d="M10 17.9451C14.5 17.4476 18 13.6326 18 9C18 4.02944 13.9706 0 9 0C4.02944 0 0 4.02944 0 9C0 10.4323 0.334576 11.7864 0.929836 12.9885L2.59299 11.824C2.21172 10.9602 2 10.0048 2 9C2 5.13401 5.13401 2 9 2C12.866 2 16 5.13401 16 9C16 12.5265 13.3923 15.4439 10 15.9291V14L5 17L10 20V17.9451ZM11 9C11 10.1046 10.1046 11 9 11C7.89543 11 7 10.1046 7 9C7 7.89543 7.89543 7 9 7C10.1046 7 11 7.89543 11 9Z" fill="white"/>
</svg>
