<?xml version="1.0" encoding="utf-8"?>
<svg width="19px" height="18px" viewBox="0 0 19 18" version="1.1" xmlns:xlink="http://www.w3.org/1999/xlink" xmlns="http://www.w3.org/2000/svg">
  <desc>Created with Lunacy</desc>
  <path d="M5.82839 7.80859L7.80893 5.82026C7.92544 5.7033 7.92544 5.49277 7.80893 5.37581L2.96242 0.510238C2.3333 -0.12135 1.21487 -0.191526 0.539159 0.440062C-0.159858 1.09504 -0.183159 2.21787 0.492558 2.89624L5.38568 7.80859C5.50218 7.92555 5.71188 7.92555 5.82839 7.80859ZM14.6606 1.82596C14.1855 2.30105 14.1855 3.07618 14.6606 3.55126C15.1357 4.05135 15.8858 4.05135 16.3609 3.55126L17.4861 2.47608C17.6111 2.35105 17.8362 2.40106 17.8862 2.57609C18.1862 3.65128 17.9112 4.87649 17.061 5.72664C16.1609 6.6518 14.8356 6.90184 13.6854 6.47677C13.5854 6.45176 13.5104 6.45176 13.4354 6.52677L6.53421 13.428C6.4592 13.503 6.4592 13.603 6.4842 13.678C6.88427 14.8032 6.65923 16.1284 5.73407 17.0536C4.88393 17.9287 3.65872 18.1788 2.58353 17.8787C2.4085 17.8287 2.35849 17.6037 2.48351 17.4787L3.5837 16.3785C4.05879 15.9034 4.05879 15.1283 3.5837 14.6532C3.10862 14.1781 2.33349 14.1781 1.85841 14.6532L0.758216 15.7534C0.633195 15.8784 0.408156 15.8284 0.358147 15.6533C0.0580957 14.5532 0.308139 13.353 1.18329 12.4778C2.08344 11.5526 3.40867 11.3026 4.55887 11.7277C4.65889 11.7527 4.7339 11.7527 4.80891 11.6777L11.6851 4.80148C11.7601 4.72646 11.7601 4.62645 11.7351 4.55143C11.335 3.42624 11.5601 2.10101 12.4852 1.17585C13.3354 0.325706 14.5606 0.0506582 15.6358 0.35071C15.8108 0.400719 15.8858 0.600753 15.7608 0.725775L14.6606 1.82596ZM16.8536 15.4847C16.8987 15.5072 16.9439 15.5522 16.989 15.5972L17.711 16.7216C17.8013 16.8566 17.7787 17.059 17.6659 17.1714L17.1695 17.6662C17.0567 17.7787 16.8536 17.8012 16.7182 17.7112L15.6126 16.969C15.5675 16.924 15.5224 16.8791 15.4998 16.8341L15.0711 16.002C15.0485 15.9795 15.026 15.9345 15.0034 15.912L10.942 11.8638C10.8292 11.7514 10.8292 11.549 10.942 11.4365L11.4384 10.9418C11.5512 10.8293 11.7543 10.8293 11.8671 10.9418L15.9285 14.9899C15.9511 15.0124 15.9962 15.0349 16.0188 15.0574L16.8536 15.4847Z" transform="matrix(-1 8.742278E-08 -8.742278E-08 -1 18.00366 18)" id="tools" fill="#FFFFFF" fill-rule="evenodd" stroke="none" />
</svg>