<?xml version="1.0" encoding="UTF-8"?>
<svg xmlns="http://www.w3.org/2000/svg" xmlns:xlink="http://www.w3.org/1999/xlink" width="18pt" height="18pt" viewBox="0 0 18 18" version="1.1">
<g id="surface1">
<path style=" stroke:none;fill-rule:nonzero;fill:#000000;fill-opacity:1;" d="M 15.289063 0.359375 C 14.6875 0.359375 14.09375 0.589844 13.636719 1.046875 L 11.273438 3.398438 L 11.214844 3.339844 C 11.0625 3.1875 10.859375 3.117188 10.652344 3.117188 C 10.449219 3.117188 10.234375 3.1875 10.078125 3.339844 L 9.144531 4.285156 C 8.835938 4.597656 8.835938 5.113281 9.144531 5.421875 L 9.515625 5.78125 L 3.015625 12.285156 C 2.53125 12.765625 2.25 13.125 2.082031 13.433594 C 1.910156 13.738281 1.863281 14.003906 1.824219 14.199219 C 1.78125 14.394531 1.753906 14.527344 1.632813 14.75 C 1.507813 14.972656 1.277344 15.273438 0.820313 15.726563 C 0.683594 15.867188 0.683594 16.09375 0.820313 16.234375 L 1.765625 17.179688 C 1.90625 17.316406 2.132813 17.316406 2.273438 17.179688 C 2.726563 16.722656 3.03125 16.492188 3.25 16.367188 C 3.472656 16.246094 3.605469 16.21875 3.800781 16.175781 C 3.996094 16.136719 4.261719 16.089844 4.566406 15.917969 C 4.875 15.75 5.234375 15.46875 5.714844 14.984375 L 12.21875 8.484375 L 12.578125 8.855469 C 12.886719 9.164063 13.402344 9.164063 13.714844 8.855469 L 14.660156 7.921875 C 14.96875 7.609375 14.96875 7.09375 14.660156 6.785156 L 14.601563 6.726563 L 16.953125 4.363281 C 17.867188 3.449219 17.867188 1.960938 16.953125 1.046875 C 16.496094 0.589844 15.890625 0.359375 15.289063 0.359375 Z M 15.300781 1.070313 C 15.714844 1.070313 16.128906 1.234375 16.449219 1.550781 C 17.085938 2.191406 17.085938 3.21875 16.449219 3.859375 L 14.085938 6.210938 L 11.789063 3.914063 L 14.140625 1.550781 C 14.460938 1.234375 14.882813 1.070313 15.300781 1.070313 Z M 10.652344 3.835938 C 10.675781 3.835938 10.691406 3.84375 10.710938 3.859375 L 14.140625 7.289063 C 14.175781 7.324219 14.175781 7.378906 14.140625 7.414063 L 13.207031 8.347656 C 13.171875 8.382813 13.128906 8.382813 13.09375 8.347656 L 12.53125 7.796875 C 12.5 7.746094 12.460938 7.703125 12.410156 7.671875 L 10.359375 5.613281 C 10.324219 5.546875 10.269531 5.492188 10.203125 5.457031 L 9.652344 4.90625 C 9.617188 4.871094 9.617188 4.828125 9.652344 4.792969 L 10.585938 3.859375 C 10.601563 3.84375 10.632813 3.835938 10.652344 3.835938 Z M 10.023438 6.300781 L 11.699219 7.976563 L 5.199219 14.480469 C 4.742188 14.933594 4.441406 15.164063 4.21875 15.289063 C 3.996094 15.414063 3.863281 15.429688 3.667969 15.46875 C 3.472656 15.507813 3.210938 15.570313 2.902344 15.738281 C 2.671875 15.867188 2.367188 16.144531 2.046875 16.4375 L 1.5625 15.953125 C 1.855469 15.632813 2.132813 15.328125 2.261719 15.097656 C 2.429688 14.789063 2.492188 14.527344 2.53125 14.332031 C 2.570313 14.136719 2.589844 14.003906 2.710938 13.78125 C 2.832031 13.558594 3.066406 13.257813 3.519531 12.800781 Z "/>
</g>
</svg>
