<?xml version="1.0" encoding="UTF-8"?>
<svg xmlns="http://www.w3.org/2000/svg" xmlns:xlink="http://www.w3.org/1999/xlink" width="18pt" height="18pt" viewBox="0 0 18 18" version="1.1">
<g id="surface1">
<path style=" stroke:none;fill-rule:nonzero;fill:#000000;fill-opacity:1;" d="M 1.800781 0.71875 C 1.207031 0.71875 0.71875 1.207031 0.71875 1.800781 L 0.71875 16.199219 C 0.71875 16.792969 1.207031 17.28125 1.800781 17.28125 L 16.199219 17.28125 C 16.792969 17.28125 17.28125 16.792969 17.28125 16.199219 L 17.28125 4.320313 C 17.28125 4.222656 17.246094 4.128906 17.179688 4.0625 L 13.9375 0.820313 C 13.871094 0.753906 13.777344 0.71875 13.679688 0.71875 Z M 1.800781 1.441406 L 3.601563 1.441406 L 3.601563 6.839844 C 3.601563 7.234375 3.925781 7.558594 4.320313 7.558594 L 12.601563 7.558594 C 12.992188 7.558594 13.320313 7.234375 13.320313 6.839844 L 13.320313 1.441406 L 13.523438 1.441406 L 16.558594 4.476563 L 16.558594 16.199219 C 16.558594 16.402344 16.402344 16.558594 16.199219 16.558594 L 14.398438 16.558594 L 14.398438 10.371094 C 14.398438 9.820313 13.941406 9.359375 13.386719 9.359375 L 4.613281 9.359375 C 4.058594 9.359375 3.601563 9.820313 3.601563 10.371094 L 3.601563 16.558594 L 1.800781 16.558594 C 1.597656 16.558594 1.441406 16.402344 1.441406 16.199219 L 1.441406 1.800781 C 1.441406 1.597656 1.597656 1.441406 1.800781 1.441406 Z M 4.320313 1.441406 L 12.601563 1.441406 L 12.601563 6.839844 L 4.320313 6.839844 Z M 10.371094 2.160156 C 10.199219 2.191406 10.078125 2.34375 10.078125 2.519531 L 10.078125 5.761719 C 10.078125 5.957031 10.242188 6.121094 10.441406 6.121094 L 11.519531 6.121094 C 11.71875 6.121094 11.878906 5.957031 11.878906 5.761719 L 11.878906 2.519531 C 11.878906 2.320313 11.71875 2.160156 11.519531 2.160156 L 10.441406 2.160156 C 10.429688 2.160156 10.417969 2.160156 10.40625 2.160156 C 10.394531 2.160156 10.382813 2.160156 10.371094 2.160156 Z M 10.800781 2.878906 L 11.160156 2.878906 L 11.160156 5.398438 L 10.800781 5.398438 Z M 4.613281 10.078125 L 13.386719 10.078125 C 13.546875 10.078125 13.679688 10.210938 13.679688 10.371094 L 13.679688 16.558594 L 4.320313 16.558594 L 4.320313 10.371094 C 4.320313 10.210938 4.453125 10.078125 4.613281 10.078125 Z M 2.160156 14.761719 L 2.160156 15.480469 L 2.878906 15.480469 L 2.878906 14.761719 Z M 15.121094 14.761719 L 15.121094 15.480469 L 15.839844 15.480469 L 15.839844 14.761719 Z "/>
</g>
</svg>
