<?xml version="1.0" encoding="UTF-8"?>
<svg xmlns="http://www.w3.org/2000/svg" xmlns:xlink="http://www.w3.org/1999/xlink" width="18pt" height="18pt" viewBox="0 0 18 18" version="1.1">
<g id="surface1">
<path style=" stroke:none;fill-rule:nonzero;fill:#000000;fill-opacity:1;" d="M 5.039063 1.078125 C 4.640625 1.078125 4.320313 1.402344 4.320313 1.800781 C 4.320313 1.933594 4.355469 2.0625 4.421875 2.171875 L 1.070313 8.28125 C 0.675781 8.285156 0.359375 8.605469 0.359375 9 C 0.359375 9.394531 0.675781 9.714844 1.070313 9.71875 L 4.421875 15.828125 C 4.355469 15.9375 4.320313 16.066406 4.320313 16.199219 C 4.320313 16.597656 4.640625 16.921875 5.039063 16.921875 C 5.304688 16.921875 5.535156 16.773438 5.660156 16.558594 L 12.339844 16.558594 C 12.464844 16.773438 12.695313 16.921875 12.960938 16.921875 C 13.359375 16.921875 13.679688 16.597656 13.679688 16.199219 C 13.679688 16.066406 13.644531 15.9375 13.578125 15.828125 L 16.929688 9.71875 C 17.324219 9.714844 17.640625 9.394531 17.640625 9 C 17.640625 8.605469 17.324219 8.285156 16.929688 8.28125 L 13.578125 2.171875 C 13.644531 2.0625 13.679688 1.933594 13.679688 1.800781 C 13.679688 1.402344 13.359375 1.078125 12.960938 1.078125 C 12.695313 1.078125 12.464844 1.226563 12.339844 1.441406 L 5.660156 1.441406 C 5.535156 1.226563 5.304688 1.078125 5.039063 1.078125 Z M 5.660156 2.160156 L 12.339844 2.160156 C 12.464844 2.371094 12.6875 2.515625 12.949219 2.519531 L 16.3125 8.628906 C 16.246094 8.738281 16.199219 8.863281 16.199219 9 C 16.199219 9.136719 16.246094 9.261719 16.3125 9.371094 L 12.949219 15.480469 C 12.6875 15.484375 12.464844 15.628906 12.339844 15.839844 L 5.660156 15.839844 C 5.535156 15.628906 5.3125 15.484375 5.050781 15.480469 L 1.6875 9.371094 C 1.753906 9.261719 1.800781 9.136719 1.800781 9 C 1.800781 8.863281 1.753906 8.738281 1.6875 8.628906 L 5.050781 2.519531 C 5.3125 2.515625 5.535156 2.371094 5.660156 2.160156 Z "/>
</g>
</svg>
