<?xml version="1.0" encoding="UTF-8"?>
<svg xmlns="http://www.w3.org/2000/svg" xmlns:xlink="http://www.w3.org/1999/xlink" width="18pt" height="18pt" viewBox="0 0 18 18" version="1.1">
<g id="surface1">
<path style=" stroke:none;fill-rule:nonzero;fill:#000000;fill-opacity:1;" d="M 1.800781 1.441406 C 1.207031 1.441406 0.71875 1.929688 0.71875 2.519531 L 0.71875 15.480469 C 0.71875 16.070313 1.207031 16.558594 1.800781 16.558594 L 16.199219 16.558594 C 16.792969 16.558594 17.28125 16.070313 17.28125 15.480469 L 17.28125 3.960938 C 17.28125 3.367188 16.792969 2.878906 16.199219 2.878906 L 6.480469 2.878906 C 6.511719 2.878906 6.46875 2.878906 6.378906 2.777344 C 6.292969 2.675781 6.183594 2.507813 6.070313 2.328125 C 5.957031 2.148438 5.839844 1.957031 5.691406 1.785156 C 5.539063 1.617188 5.335938 1.441406 5.039063 1.441406 Z M 1.800781 2.160156 L 5.039063 2.160156 C 5.019531 2.160156 5.0625 2.164063 5.152344 2.261719 C 5.238281 2.363281 5.347656 2.53125 5.460938 2.710938 C 5.574219 2.890625 5.691406 3.082031 5.835938 3.25 C 5.984375 3.417969 6.183594 3.601563 6.480469 3.601563 L 16.199219 3.601563 C 16.402344 3.601563 16.558594 3.757813 16.558594 3.960938 L 16.558594 4.746094 C 16.445313 4.707031 16.328125 4.679688 16.199219 4.679688 L 1.800781 4.679688 C 1.671875 4.679688 1.554688 4.707031 1.441406 4.746094 L 1.441406 2.519531 C 1.441406 2.316406 1.597656 2.160156 1.800781 2.160156 Z M 1.800781 5.398438 L 16.199219 5.398438 C 16.402344 5.398438 16.558594 5.554688 16.558594 5.761719 L 16.558594 15.480469 C 16.558594 15.683594 16.402344 15.839844 16.199219 15.839844 L 1.800781 15.839844 C 1.597656 15.839844 1.441406 15.683594 1.441406 15.480469 L 1.441406 5.761719 C 1.441406 5.554688 1.597656 5.398438 1.800781 5.398438 Z "/>
</g>
</svg>
