<?xml version="1.0" encoding="UTF-8"?>
<svg xmlns="http://www.w3.org/2000/svg" xmlns:xlink="http://www.w3.org/1999/xlink" width="18pt" height="18pt" viewBox="0 0 18 18" version="1.1">
<g id="surface1">
<path style=" stroke:none;fill-rule:nonzero;fill:#000000;fill-opacity:1;" d="M 7.558594 1.078125 C 4.183594 1.078125 1.441406 3.824219 1.441406 7.199219 C 1.441406 10.578125 4.183594 13.320313 7.558594 13.320313 C 8.894531 13.320313 10.128906 12.890625 11.136719 12.160156 L 15.875 16.886719 L 16.886719 15.875 L 12.207031 11.183594 C 13.125 10.109375 13.679688 8.71875 13.679688 7.199219 C 13.679688 3.824219 10.9375 1.078125 7.558594 1.078125 Z M 7.558594 1.800781 C 10.546875 1.800781 12.960938 4.214844 12.960938 7.199219 C 12.960938 10.1875 10.546875 12.601563 7.558594 12.601563 C 4.574219 12.601563 2.160156 10.1875 2.160156 7.199219 C 2.160156 4.214844 4.574219 1.800781 7.558594 1.800781 Z M 5.152344 5.21875 C 5.132813 5.363281 5.085938 5.484375 5.015625 5.578125 C 4.949219 5.675781 4.855469 5.757813 4.757813 5.816406 C 4.660156 5.875 4.554688 5.917969 4.433594 5.941406 C 4.308594 5.964844 4.171875 5.976563 4.039063 5.972656 L 4.039063 6.546875 L 4.996094 6.546875 L 4.996094 9 L 5.761719 9 L 5.761719 5.21875 Z M 9.820313 5.21875 C 9.800781 5.363281 9.753906 5.484375 9.6875 5.578125 C 9.617188 5.675781 9.527344 5.757813 9.425781 5.816406 C 9.328125 5.875 9.226563 5.917969 9.101563 5.941406 C 8.976563 5.964844 8.839844 5.976563 8.707031 5.972656 L 8.707031 6.546875 L 9.664063 6.546875 L 9.664063 9 L 10.429688 9 L 10.429688 5.21875 Z M 7.144531 6.253906 L 7.144531 7.085938 L 7.988281 7.085938 L 7.988281 6.253906 Z M 7.144531 8.167969 L 7.144531 9 L 7.988281 9 L 7.988281 8.167969 Z "/>
</g>
</svg>
