<?xml version="1.0" encoding="UTF-8"?>
<svg xmlns="http://www.w3.org/2000/svg" xmlns:xlink="http://www.w3.org/1999/xlink" width="18pt" height="18pt" viewBox="0 0 18 18" version="1.1">
<g id="surface1">
<path style=" stroke:none;fill-rule:nonzero;fill:#000000;fill-opacity:1;" d="M 11.734375 1.453125 C 11.449219 1.453125 11.175781 1.546875 10.96875 1.753906 L 1.394531 11.429688 C 0.972656 11.855469 0.972656 12.554688 1.394531 12.984375 L 4.835938 16.457031 C 4.90625 16.527344 5 16.558594 5.097656 16.558594 L 14.761719 16.558594 C 14.902344 16.582031 15.042969 16.515625 15.117188 16.398438 C 15.195313 16.277344 15.195313 16.121094 15.117188 16.003906 C 15.042969 15.882813 14.902344 15.820313 14.761719 15.839844 L 9.011719 15.839844 L 16.964844 7.808594 C 17.386719 7.382813 17.386719 6.679688 16.964844 6.253906 L 12.511719 1.753906 C 12.304688 1.546875 12.015625 1.453125 11.734375 1.453125 Z M 6.480469 7.335938 L 11.632813 12.160156 L 8 15.839844 L 5.242188 15.839844 L 1.914063 12.464844 C 1.769531 12.320313 1.769531 12.089844 1.914063 11.949219 Z "/>
</g>
</svg>
