<?xml version="1.0" encoding="UTF-8"?>
<svg xmlns="http://www.w3.org/2000/svg" xmlns:xlink="http://www.w3.org/1999/xlink" width="18pt" height="18pt" viewBox="0 0 18 18" version="1.1">
<g id="surface1">
<path style=" stroke:none;fill-rule:nonzero;fill:#000000;fill-opacity:1;" d="M 15.433594 3.105469 C 15.421875 3.109375 15.414063 3.113281 15.402344 3.117188 C 15.308594 3.140625 15.226563 3.199219 15.175781 3.285156 L 7.820313 14.691406 L 2.757813 10.125 C 2.667969 10.011719 2.519531 9.964844 2.378906 10 C 2.242188 10.035156 2.140625 10.152344 2.117188 10.296875 C 2.097656 10.4375 2.160156 10.578125 2.285156 10.652344 L 7.648438 15.515625 C 7.730469 15.582031 7.835938 15.613281 7.9375 15.597656 C 8.042969 15.582031 8.132813 15.523438 8.191406 15.433594 L 15.785156 3.667969 C 15.867188 3.550781 15.871094 3.394531 15.796875 3.269531 C 15.71875 3.148438 15.578125 3.082031 15.433594 3.105469 Z "/>
</g>
</svg>
