<?xml version="1.0" encoding="UTF-8"?>
<svg xmlns="http://www.w3.org/2000/svg" xmlns:xlink="http://www.w3.org/1999/xlink" width="18pt" height="18pt" viewBox="0 0 18 18" version="1.1">
<g id="surface1">
<path style=" stroke:none;fill-rule:nonzero;fill:#000000;fill-opacity:1;" d="M 10.792969 2.15625 C 10.777344 2.15625 10.757813 2.15625 10.742188 2.160156 L 1.800781 2.160156 C 1.207031 2.160156 0.71875 2.648438 0.71875 3.238281 L 0.71875 14.761719 C 0.71875 15.351563 1.207031 15.839844 1.800781 15.839844 L 10.738281 15.839844 C 10.777344 15.847656 10.816406 15.847656 10.855469 15.839844 L 16.199219 15.839844 C 16.792969 15.839844 17.28125 15.351563 17.28125 14.761719 L 17.28125 3.238281 C 17.28125 2.648438 16.792969 2.160156 16.199219 2.160156 L 10.855469 2.160156 C 10.835938 2.15625 10.816406 2.15625 10.792969 2.15625 Z M 1.800781 2.878906 L 10.441406 2.878906 L 10.441406 15.121094 L 1.800781 15.121094 C 1.597656 15.121094 1.441406 14.964844 1.441406 14.761719 L 1.441406 3.238281 C 1.441406 3.035156 1.597656 2.878906 1.800781 2.878906 Z M 11.160156 2.878906 L 16.199219 2.878906 C 16.402344 2.878906 16.558594 3.035156 16.558594 3.238281 L 16.558594 14.761719 C 16.558594 14.964844 16.402344 15.121094 16.199219 15.121094 L 11.160156 15.121094 Z M 6.839844 6.835938 C 6.691406 6.835938 6.558594 6.925781 6.503906 7.058594 C 6.449219 7.195313 6.480469 7.351563 6.585938 7.453125 L 7.757813 8.640625 L 3.238281 8.640625 C 3.109375 8.636719 2.988281 8.707031 2.921875 8.820313 C 2.859375 8.929688 2.859375 9.070313 2.921875 9.179688 C 2.988281 9.292969 3.109375 9.363281 3.238281 9.359375 L 7.757813 9.359375 L 6.585938 10.546875 C 6.492188 10.636719 6.453125 10.773438 6.488281 10.898438 C 6.519531 11.023438 6.621094 11.121094 6.746094 11.15625 C 6.871094 11.1875 7.007813 11.148438 7.097656 11.054688 L 9.125 9 L 7.097656 6.945313 C 7.027344 6.875 6.9375 6.835938 6.839844 6.835938 Z "/>
</g>
</svg>
