<?xml version="1.0" encoding="UTF-8"?>
<svg xmlns="http://www.w3.org/2000/svg" xmlns:xlink="http://www.w3.org/1999/xlink" width="18pt" height="18pt" viewBox="0 0 18 18" version="1.1">
<g id="surface1">
<path style=" stroke:none;fill-rule:nonzero;fill:#000000;fill-opacity:1;" d="M 8.167969 1.078125 C 8.078125 1.078125 7.992188 1.121094 7.921875 1.191406 L 7.660156 1.441406 C 6.078125 1.464844 4.753906 1.707031 3.792969 2.148438 C 2.8125 2.601563 2.160156 3.316406 2.160156 4.207031 C 2.160156 4.894531 2.464844 5.488281 2.9375 5.929688 C 2.96875 5.960938 3.011719 5.988281 3.046875 6.019531 L 1.148438 7.921875 C 0.859375 8.207031 0.71875 8.601563 0.71875 9 C 0.71875 9.398438 0.859375 9.792969 1.148438 10.078125 L 6.839844 15.773438 C 7.128906 16.0625 7.488281 16.199219 7.921875 16.199219 C 8.316406 16.199219 8.710938 16.0625 9 15.773438 L 15.480469 9.28125 C 15.828125 9.671875 16.199219 10.1875 16.199219 10.6875 C 16.199219 11.492188 15.839844 12.980469 15.839844 14.039063 C 15.839844 14.632813 16.328125 15.121094 16.921875 15.121094 C 17.511719 15.121094 18 14.632813 18 14.039063 L 18 10.191406 C 18 8.589844 16.722656 7.289063 15.300781 6.289063 C 13.941406 5.332031 12.410156 4.640625 11.496094 4.265625 L 8.425781 1.191406 C 8.355469 1.121094 8.257813 1.078125 8.167969 1.078125 Z M 8.132813 1.945313 L 10.914063 4.714844 C 10.929688 4.742188 10.953125 4.769531 10.980469 4.792969 L 14.941406 8.753906 L 8.460938 15.234375 C 8.171875 15.519531 7.632813 15.519531 7.347656 15.234375 L 1.652344 9.539063 C 1.511719 9.398438 1.441406 9.214844 1.441406 9 C 1.441406 8.785156 1.511719 8.605469 1.652344 8.425781 L 3.644531 6.433594 C 3.980469 6.628906 4.347656 6.796875 4.746094 6.929688 C 5.964844 7.339844 7.414063 7.5 8.730469 7.539063 C 8.851563 7.765625 9.085938 7.921875 9.359375 7.921875 C 9.757813 7.921875 10.078125 7.597656 10.078125 7.199219 C 10.078125 6.800781 9.757813 6.480469 9.359375 6.480469 C 9.101563 6.480469 8.878906 6.613281 8.753906 6.816406 C 7.480469 6.777344 6.082031 6.617188 4.972656 6.242188 C 4.328125 6.027344 3.792969 5.738281 3.429688 5.398438 C 3.070313 5.0625 2.878906 4.691406 2.878906 4.207031 C 2.878906 3.660156 3.257813 3.1875 4.09375 2.800781 C 4.777344 2.488281 5.742188 2.273438 6.90625 2.195313 L 4.027344 5.039063 C 4.207031 5.183594 4.464844 5.292969 4.679688 5.398438 Z M 12.972656 5.738281 C 13.601563 6.0625 14.273438 6.4375 14.894531 6.875 C 16.238281 7.816406 17.28125 8.988281 17.28125 10.191406 L 17.28125 14.039063 C 17.28125 14.238281 17.121094 14.398438 16.921875 14.398438 C 16.71875 14.398438 16.558594 14.238281 16.558594 14.039063 C 16.558594 13.15625 16.921875 11.683594 16.921875 10.6875 C 16.921875 9.660156 16.140625 8.898438 15.738281 8.492188 L 15.726563 8.492188 Z "/>
</g>
</svg>
