<?xml version="1.0" encoding="UTF-8"?>
<svg xmlns="http://www.w3.org/2000/svg" xmlns:xlink="http://www.w3.org/1999/xlink" width="18pt" height="18pt" viewBox="0 0 18 18" version="1.1">
<g id="surface1">
<path style=" stroke:none;fill-rule:nonzero;fill:#000000;fill-opacity:1;" d="M 11.824219 1.113281 C 11.6875 1.136719 11.582031 1.234375 11.542969 1.367188 C 11.503906 1.5 11.542969 1.640625 11.644531 1.734375 L 14.953125 5.039063 L 9.359375 5.039063 C 7.074219 5.039063 5.355469 5.617188 4.207031 6.648438 C 3.058594 7.679688 2.519531 9.144531 2.519531 10.800781 C 2.519531 14.027344 4.015625 16.390625 4.015625 16.390625 C 4.078125 16.511719 4.203125 16.585938 4.339844 16.582031 C 4.476563 16.582031 4.597656 16.503906 4.65625 16.382813 C 4.71875 16.261719 4.703125 16.117188 4.625 16.007813 C 4.625 16.007813 3.238281 13.804688 3.238281 10.800781 C 3.238281 9.300781 3.710938 8.070313 4.691406 7.1875 C 5.671875 6.308594 7.195313 5.761719 9.359375 5.761719 L 14.953125 5.761719 L 11.644531 9.066406 C 11.535156 9.15625 11.488281 9.292969 11.519531 9.429688 C 11.550781 9.5625 11.65625 9.667969 11.789063 9.699219 C 11.921875 9.730469 12.0625 9.679688 12.148438 9.574219 L 16.078125 5.660156 L 16.324219 5.398438 L 16.078125 5.140625 L 12.148438 1.226563 C 12.074219 1.144531 11.96875 1.105469 11.859375 1.113281 C 11.847656 1.113281 11.835938 1.113281 11.824219 1.113281 Z "/>
</g>
</svg>
