<?xml version="1.0" encoding="UTF-8"?>
<svg xmlns="http://www.w3.org/2000/svg" xmlns:xlink="http://www.w3.org/1999/xlink" width="18pt" height="18pt" viewBox="0 0 18 18" version="1.1">
<g id="surface1">
<path style=" stroke:none;fill-rule:nonzero;fill:#000000;fill-opacity:1;" d="M 6.050781 1.113281 C 5.972656 1.128906 5.902344 1.167969 5.851563 1.226563 L 1.921875 5.140625 L 1.675781 5.398438 L 1.921875 5.660156 L 5.851563 9.574219 C 5.9375 9.679688 6.078125 9.730469 6.210938 9.699219 C 6.34375 9.667969 6.449219 9.5625 6.480469 9.429688 C 6.511719 9.292969 6.464844 9.15625 6.355469 9.066406 L 3.046875 5.761719 L 8.640625 5.761719 C 10.804688 5.761719 12.328125 6.308594 13.308594 7.1875 C 14.289063 8.070313 14.761719 9.300781 14.761719 10.800781 C 14.761719 13.804688 13.375 16.007813 13.375 16.007813 C 13.296875 16.117188 13.28125 16.261719 13.34375 16.382813 C 13.402344 16.503906 13.523438 16.582031 13.660156 16.582031 C 13.796875 16.585938 13.921875 16.511719 13.984375 16.390625 C 13.984375 16.390625 15.480469 14.027344 15.480469 10.800781 C 15.480469 9.144531 14.941406 7.679688 13.792969 6.648438 C 12.644531 5.617188 10.925781 5.039063 8.640625 5.039063 L 3.046875 5.039063 L 6.355469 1.734375 C 6.472656 1.625 6.503906 1.453125 6.433594 1.3125 C 6.363281 1.167969 6.207031 1.089844 6.050781 1.113281 Z "/>
</g>
</svg>
