<?xml version="1.0" encoding="UTF-8"?>
<svg xmlns="http://www.w3.org/2000/svg" xmlns:xlink="http://www.w3.org/1999/xlink" width="18pt" height="18pt" viewBox="0 0 18 18" version="1.1">
<g id="surface1">
<path style=" stroke:none;fill-rule:nonzero;fill:#000000;fill-opacity:1;" d="M 1.800781 0.71875 C 1.207031 0.71875 0.71875 1.207031 0.71875 1.800781 L 0.71875 16.199219 C 0.71875 16.792969 1.207031 17.28125 1.800781 17.28125 L 16.199219 17.28125 C 16.792969 17.28125 17.28125 16.792969 17.28125 16.199219 L 17.28125 10.078125 L 16.558594 10.800781 L 16.558594 16.199219 C 16.558594 16.398438 16.398438 16.558594 16.199219 16.558594 L 14.398438 16.558594 L 14.398438 12.960938 L 13.679688 13.679688 L 13.679688 16.558594 L 4.320313 16.558594 L 4.320313 10.371094 C 4.320313 10.214844 4.453125 10.078125 4.613281 10.078125 L 11.519531 10.078125 L 12.238281 9.359375 L 4.613281 9.359375 C 4.058594 9.359375 3.601563 9.816406 3.601563 10.371094 L 3.601563 16.558594 L 1.800781 16.558594 C 1.601563 16.558594 1.441406 16.398438 1.441406 16.199219 L 1.441406 1.800781 C 1.441406 1.601563 1.601563 1.441406 1.800781 1.441406 L 3.601563 1.441406 L 3.601563 6.839844 C 3.601563 7.234375 3.925781 7.558594 4.320313 7.558594 L 12.601563 7.558594 C 12.992188 7.558594 13.320313 7.234375 13.320313 6.839844 L 13.320313 1.441406 L 13.535156 1.441406 L 16.558594 4.464844 L 16.558594 5.761719 C 16.957031 5.761719 17.28125 5.894531 17.28125 5.894531 L 17.28125 4.320313 C 17.28125 4.222656 17.246094 4.128906 17.179688 4.0625 L 13.9375 0.820313 C 13.871094 0.753906 13.777344 0.71875 13.679688 0.71875 Z M 4.320313 1.441406 L 12.601563 1.441406 L 12.601563 6.839844 L 4.320313 6.839844 Z M 10.371094 2.160156 C 10.199219 2.191406 10.078125 2.34375 10.078125 2.519531 L 10.078125 5.761719 C 10.078125 5.957031 10.242188 6.121094 10.441406 6.121094 L 11.519531 6.121094 C 11.71875 6.121094 11.878906 5.957031 11.878906 5.761719 L 11.878906 2.519531 C 11.878906 2.320313 11.71875 2.160156 11.519531 2.160156 L 10.441406 2.160156 C 10.429688 2.160156 10.417969 2.160156 10.40625 2.160156 C 10.394531 2.160156 10.382813 2.160156 10.371094 2.160156 Z M 10.800781 2.878906 L 11.160156 2.878906 L 11.160156 5.398438 L 10.800781 5.398438 Z M 16.539063 6.480469 C 16.160156 6.480469 15.777344 6.621094 15.492188 6.90625 L 15.414063 6.996094 C 15.382813 7.015625 15.355469 7.039063 15.332031 7.066406 L 9.6875 12.710938 C 9.640625 12.753906 9.605469 12.808594 9.585938 12.871094 L 9.011719 15.03125 C 8.980469 15.152344 9.015625 15.285156 9.105469 15.375 C 9.195313 15.464844 9.328125 15.5 9.449219 15.46875 L 11.609375 14.894531 C 11.671875 14.875 11.726563 14.839844 11.765625 14.792969 L 17.324219 9.234375 C 17.324219 9.234375 17.371094 9.1875 17.414063 9.144531 C 17.441406 9.125 17.464844 9.097656 17.484375 9.066406 C 17.519531 9.03125 17.574219 8.988281 17.574219 8.988281 C 18.144531 8.414063 18.144531 7.480469 17.574219 6.90625 C 17.285156 6.621094 16.914063 6.480469 16.539063 6.480469 Z M 15.75 7.660156 L 16.820313 8.730469 L 11.328125 14.21875 L 11.304688 14.230469 L 10.25 13.171875 L 10.261719 13.152344 Z M 2.160156 14.761719 L 2.160156 15.480469 L 2.878906 15.480469 L 2.878906 14.761719 Z M 15.121094 14.761719 L 15.121094 15.480469 L 15.839844 15.480469 L 15.839844 14.761719 Z "/>
</g>
</svg>
