<?xml version="1.0" encoding="UTF-8"?>
<svg xmlns="http://www.w3.org/2000/svg" xmlns:xlink="http://www.w3.org/1999/xlink" width="18pt" height="18pt" viewBox="0 0 18 18" version="1.1">
<g id="surface1">
<path style=" stroke:none;fill-rule:nonzero;fill:#000000;fill-opacity:1;" d="M 12.847656 0.71875 C 12.765625 0.730469 12.691406 0.773438 12.632813 0.832031 L 3.273438 10.179688 C 3.238281 10.21875 3.210938 10.265625 3.195313 10.316406 L 0.742188 16.796875 C 0.695313 16.925781 0.726563 17.074219 0.828125 17.171875 C 0.925781 17.273438 1.074219 17.304688 1.203125 17.257813 L 7.683594 14.804688 C 7.734375 14.789063 7.78125 14.761719 7.820313 14.726563 L 8.28125 14.265625 C 8.367188 14.226563 8.433594 14.160156 8.472656 14.074219 L 17.167969 5.367188 C 17.273438 5.277344 17.324219 5.140625 17.292969 5.003906 C 17.261719 4.871094 17.15625 4.765625 17.023438 4.734375 C 16.886719 4.703125 16.75 4.753906 16.660156 4.859375 L 8.042969 13.464844 C 7.785156 13.347656 7.390625 13.214844 6.886719 13.230469 C 6.945313 13.070313 7.03125 12.972656 7.066406 12.78125 C 7.144531 12.3125 7.101563 11.738281 6.683594 11.316406 C 6.261719 10.898438 5.683594 10.859375 5.207031 10.945313 C 5.042969 10.976563 4.960938 11.0625 4.816406 11.113281 C 4.820313 11.0625 4.835938 11.054688 4.835938 11.003906 C 4.847656 10.691406 4.773438 10.304688 4.535156 9.957031 L 13.140625 1.339844 C 13.246094 1.234375 13.277344 1.078125 13.222656 0.941406 C 13.164063 0.804688 13.027344 0.71875 12.882813 0.71875 C 12.871094 0.71875 12.859375 0.71875 12.847656 0.71875 Z M 3.992188 10.496094 C 4.082031 10.660156 4.121094 10.820313 4.117188 10.980469 C 4.113281 11.226563 4.03125 11.4375 3.984375 11.578125 C 3.925781 11.726563 3.980469 11.898438 4.109375 11.992188 C 4.242188 12.085938 4.417969 12.082031 4.546875 11.980469 C 4.648438 11.902344 4.992188 11.71875 5.332031 11.65625 C 5.675781 11.589844 5.976563 11.625 6.175781 11.824219 C 6.375 12.023438 6.414063 12.328125 6.355469 12.667969 C 6.296875 13.007813 6.121094 13.347656 6.050781 13.445313 C 5.953125 13.570313 5.949219 13.746094 6.042969 13.878906 C 6.136719 14.007813 6.304688 14.0625 6.457031 14.007813 C 6.914063 13.867188 7.269531 13.917969 7.515625 13.996094 L 7.347656 14.164063 L 3.375 15.671875 L 2.339844 14.625 L 3.835938 10.652344 Z "/>
</g>
</svg>
