<?xml version="1.0" encoding="UTF-8"?>
<svg xmlns="http://www.w3.org/2000/svg" xmlns:xlink="http://www.w3.org/1999/xlink" width="18pt" height="18pt" viewBox="0 0 18 18" version="1.1">
<g id="surface1">
<path style=" stroke:none;fill-rule:nonzero;fill:#000000;fill-opacity:1;" d="M 0 1.800781 L 0 16.199219 L 18 16.199219 L 18 1.800781 Z M 0.71875 2.519531 L 17.28125 2.519531 L 17.28125 11.878906 L 13.433594 11.878906 L 10.914063 10.078125 L 8.789063 10.078125 L 7.316406 8.609375 L 5.566406 8.960938 L 4.015625 6.632813 L 0.71875 9.929688 Z M 13.5 4.679688 C 12.609375 4.679688 11.878906 5.410156 11.878906 6.300781 C 11.878906 7.191406 12.609375 7.921875 13.5 7.921875 C 14.390625 7.921875 15.121094 7.191406 15.121094 6.300781 C 15.121094 5.410156 14.390625 4.679688 13.5 4.679688 Z M 13.5 5.398438 C 14 5.398438 14.398438 5.800781 14.398438 6.300781 C 14.398438 6.800781 14 7.199219 13.5 7.199219 C 13 7.199219 12.601563 6.800781 12.601563 6.300781 C 12.601563 5.800781 13 5.398438 13.5 5.398438 Z M 3.902344 7.765625 L 5.234375 9.757813 L 7.082031 9.390625 L 8.492188 10.800781 L 10.683594 10.800781 L 13.203125 12.601563 L 17.28125 12.601563 L 17.28125 15.480469 L 0.71875 15.480469 L 0.71875 10.949219 Z "/>
</g>
</svg>
