<?xml version="1.0" encoding="UTF-8"?>
<svg xmlns="http://www.w3.org/2000/svg" xmlns:xlink="http://www.w3.org/1999/xlink" width="18pt" height="18pt" viewBox="0 0 18 18" version="1.1">
<g id="surface1">
<path style=" stroke:none;fill-rule:nonzero;fill:#000000;fill-opacity:1;" d="M 1.800781 1.441406 C 1.601563 1.441406 1.441406 1.601563 1.441406 1.800781 L 1.441406 3.960938 C 1.4375 4.089844 1.507813 4.210938 1.617188 4.277344 C 1.730469 4.339844 1.867188 4.339844 1.980469 4.277344 C 2.09375 4.210938 2.160156 4.089844 2.160156 3.960938 L 2.160156 2.160156 L 3.960938 2.160156 C 4.089844 2.160156 4.210938 2.09375 4.277344 1.980469 C 4.339844 1.867188 4.339844 1.730469 4.277344 1.617188 C 4.210938 1.507813 4.089844 1.4375 3.960938 1.441406 Z M 5.398438 1.441406 C 5.269531 1.4375 5.148438 1.507813 5.082031 1.617188 C 5.019531 1.730469 5.019531 1.867188 5.082031 1.980469 C 5.148438 2.09375 5.269531 2.160156 5.398438 2.160156 L 8.28125 2.160156 C 8.410156 2.160156 8.53125 2.09375 8.597656 1.980469 C 8.660156 1.867188 8.660156 1.730469 8.597656 1.617188 C 8.53125 1.507813 8.410156 1.4375 8.28125 1.441406 Z M 9.71875 1.441406 C 9.589844 1.4375 9.46875 1.507813 9.402344 1.617188 C 9.339844 1.730469 9.339844 1.867188 9.402344 1.980469 C 9.46875 2.09375 9.589844 2.160156 9.71875 2.160156 L 12.601563 2.160156 C 12.730469 2.160156 12.851563 2.09375 12.917969 1.980469 C 12.980469 1.867188 12.980469 1.730469 12.917969 1.617188 C 12.851563 1.507813 12.730469 1.4375 12.601563 1.441406 Z M 14.039063 1.441406 C 13.910156 1.4375 13.789063 1.507813 13.722656 1.617188 C 13.660156 1.730469 13.660156 1.867188 13.722656 1.980469 C 13.789063 2.09375 13.910156 2.160156 14.039063 2.160156 L 15.839844 2.160156 L 15.839844 3.960938 C 15.839844 4.089844 15.90625 4.210938 16.019531 4.277344 C 16.132813 4.339844 16.269531 4.339844 16.382813 4.277344 C 16.492188 4.210938 16.5625 4.089844 16.558594 3.960938 L 16.558594 1.800781 C 16.558594 1.601563 16.398438 1.441406 16.199219 1.441406 Z M 1.792969 5.035156 C 1.597656 5.039063 1.4375 5.203125 1.441406 5.398438 L 1.441406 8.28125 C 1.4375 8.410156 1.507813 8.53125 1.617188 8.597656 C 1.730469 8.660156 1.867188 8.660156 1.980469 8.597656 C 2.09375 8.53125 2.160156 8.410156 2.160156 8.28125 L 2.160156 5.398438 C 2.160156 5.304688 2.125 5.207031 2.054688 5.140625 C 1.984375 5.070313 1.890625 5.03125 1.792969 5.035156 Z M 16.195313 5.035156 C 15.996094 5.039063 15.835938 5.203125 15.839844 5.398438 L 15.839844 8.28125 C 15.839844 8.410156 15.90625 8.53125 16.019531 8.597656 C 16.132813 8.660156 16.269531 8.660156 16.382813 8.597656 C 16.492188 8.53125 16.5625 8.410156 16.558594 8.28125 L 16.558594 5.398438 C 16.5625 5.304688 16.523438 5.207031 16.453125 5.140625 C 16.386719 5.070313 16.292969 5.03125 16.195313 5.035156 Z M 1.792969 9.355469 C 1.597656 9.359375 1.4375 9.523438 1.441406 9.71875 L 1.441406 12.601563 C 1.4375 12.730469 1.507813 12.851563 1.617188 12.917969 C 1.730469 12.980469 1.867188 12.980469 1.980469 12.917969 C 2.09375 12.851563 2.160156 12.730469 2.160156 12.601563 L 2.160156 9.71875 C 2.160156 9.621094 2.125 9.527344 2.054688 9.460938 C 1.984375 9.390625 1.890625 9.351563 1.792969 9.355469 Z M 16.195313 9.355469 C 15.996094 9.359375 15.835938 9.523438 15.839844 9.71875 L 15.839844 12.601563 C 15.839844 12.730469 15.90625 12.851563 16.019531 12.917969 C 16.132813 12.980469 16.269531 12.980469 16.382813 12.917969 C 16.492188 12.851563 16.5625 12.730469 16.558594 12.601563 L 16.558594 9.71875 C 16.5625 9.621094 16.523438 9.527344 16.453125 9.460938 C 16.386719 9.390625 16.292969 9.351563 16.195313 9.355469 Z M 1.792969 13.675781 C 1.597656 13.679688 1.4375 13.839844 1.441406 14.039063 L 1.441406 16.199219 C 1.441406 16.398438 1.601563 16.558594 1.800781 16.558594 L 3.960938 16.558594 C 4.089844 16.5625 4.210938 16.492188 4.277344 16.382813 C 4.339844 16.269531 4.339844 16.132813 4.277344 16.019531 C 4.210938 15.90625 4.089844 15.839844 3.960938 15.839844 L 2.160156 15.839844 L 2.160156 14.039063 C 2.160156 13.941406 2.125 13.847656 2.054688 13.78125 C 1.984375 13.710938 1.890625 13.671875 1.792969 13.675781 Z M 16.195313 13.675781 C 15.996094 13.679688 15.835938 13.839844 15.839844 14.039063 L 15.839844 15.839844 L 14.039063 15.839844 C 13.910156 15.839844 13.789063 15.90625 13.722656 16.019531 C 13.660156 16.132813 13.660156 16.269531 13.722656 16.382813 C 13.789063 16.492188 13.910156 16.5625 14.039063 16.558594 L 16.199219 16.558594 C 16.398438 16.558594 16.558594 16.398438 16.558594 16.199219 L 16.558594 14.039063 C 16.5625 13.941406 16.523438 13.847656 16.453125 13.78125 C 16.386719 13.710938 16.292969 13.671875 16.195313 13.675781 Z M 5.398438 15.839844 C 5.269531 15.839844 5.148438 15.90625 5.082031 16.019531 C 5.019531 16.132813 5.019531 16.269531 5.082031 16.382813 C 5.148438 16.492188 5.269531 16.5625 5.398438 16.558594 L 8.28125 16.558594 C 8.410156 16.5625 8.53125 16.492188 8.597656 16.382813 C 8.660156 16.269531 8.660156 16.132813 8.597656 16.019531 C 8.53125 15.90625 8.410156 15.839844 8.28125 15.839844 Z M 9.71875 15.839844 C 9.589844 15.839844 9.46875 15.90625 9.402344 16.019531 C 9.339844 16.132813 9.339844 16.269531 9.402344 16.382813 C 9.46875 16.492188 9.589844 16.5625 9.71875 16.558594 L 12.601563 16.558594 C 12.730469 16.5625 12.851563 16.492188 12.917969 16.382813 C 12.980469 16.269531 12.980469 16.132813 12.917969 16.019531 C 12.851563 15.90625 12.730469 15.839844 12.601563 15.839844 Z "/>
</g>
</svg>
