<?xml version="1.0" encoding="UTF-8"?>
<svg xmlns="http://www.w3.org/2000/svg" xmlns:xlink="http://www.w3.org/1999/xlink" width="18pt" height="18pt" viewBox="0 0 18 18" version="1.1">
<g id="surface1">
<path style=" stroke:none;fill-rule:nonzero;fill:#000000;fill-opacity:1;" d="M 1.800781 1.441406 C 1.601563 1.441406 1.441406 1.601563 1.441406 1.800781 L 1.441406 11.160156 C 1.441406 11.359375 1.601563 11.519531 1.800781 11.519531 L 6.480469 11.519531 L 6.480469 16.199219 C 6.480469 16.398438 6.640625 16.558594 6.839844 16.558594 L 16.199219 16.558594 C 16.398438 16.558594 16.558594 16.398438 16.558594 16.199219 L 16.558594 6.839844 C 16.558594 6.640625 16.398438 6.480469 16.199219 6.480469 L 11.519531 6.480469 L 11.519531 1.800781 C 11.519531 1.601563 11.359375 1.441406 11.160156 1.441406 Z M 2.160156 2.160156 L 10.800781 2.160156 L 10.800781 6.691406 L 10.601563 6.890625 L 11.109375 7.398438 L 11.308594 7.199219 L 15.839844 7.199219 L 15.839844 15.839844 L 7.199219 15.839844 L 7.199219 11.308594 L 7.398438 11.109375 L 6.890625 10.601563 L 6.691406 10.800781 L 2.160156 10.800781 Z M 3.496094 2.984375 L 2.984375 3.496094 L 6.332031 6.839844 L 3.601563 6.839844 L 3.601563 7.558594 L 7.558594 7.558594 L 7.558594 3.601563 L 6.839844 3.601563 L 6.839844 6.332031 Z M 10.128906 7.359375 L 9.519531 7.96875 L 10.03125 8.480469 L 10.640625 7.871094 Z M 9.050781 8.441406 L 8.441406 9.050781 L 8.949219 9.558594 L 9.558594 8.949219 Z M 7.96875 9.519531 L 7.359375 10.128906 L 7.871094 10.640625 L 8.480469 10.03125 Z M 10.441406 10.441406 L 10.441406 14.398438 L 11.160156 14.398438 L 11.160156 11.667969 L 14.503906 15.015625 L 15.015625 14.503906 L 11.667969 11.160156 L 14.398438 11.160156 L 14.398438 10.441406 Z "/>
</g>
</svg>
