<?xml version="1.0" encoding="UTF-8"?>
<svg xmlns="http://www.w3.org/2000/svg" xmlns:xlink="http://www.w3.org/1999/xlink" width="18pt" height="18pt" viewBox="0 0 18 18" version="1.1">
<g id="surface1">
<path style=" stroke:none;fill-rule:nonzero;fill:#000000;fill-opacity:1;" d="M 9.007813 2.304688 C 8.972656 2.304688 8.9375 2.3125 8.90625 2.328125 L 1.253906 5.871094 C 1.175781 5.90625 1.125 5.988281 1.125 6.074219 C 1.125 6.164063 1.175781 6.242188 1.253906 6.28125 L 3.972656 7.539063 L 1.253906 8.796875 C 1.175781 8.832031 1.125 8.914063 1.125 9 C 1.125 9.085938 1.175781 9.167969 1.253906 9.203125 L 3.972656 10.460938 L 1.253906 11.71875 C 1.175781 11.757813 1.125 11.835938 1.125 11.925781 C 1.125 12.011719 1.175781 12.09375 1.253906 12.128906 L 8.90625 15.671875 C 8.964844 15.699219 9.035156 15.699219 9.09375 15.671875 L 16.746094 12.128906 C 16.824219 12.09375 16.875 12.011719 16.875 11.925781 C 16.875 11.835938 16.824219 11.757813 16.746094 11.71875 L 14.027344 10.460938 L 16.746094 9.203125 C 16.824219 9.167969 16.875 9.085938 16.875 9 C 16.875 8.914063 16.824219 8.832031 16.746094 8.796875 L 14.027344 7.539063 L 16.746094 6.28125 C 16.824219 6.242188 16.875 6.164063 16.875 6.074219 C 16.875 5.988281 16.824219 5.90625 16.746094 5.871094 L 9.09375 2.328125 C 9.066406 2.3125 9.039063 2.308594 9.007813 2.304688 Z M 9 2.777344 L 16.113281 6.074219 L 13.390625 7.335938 L 9 9.371094 L 4.632813 7.347656 C 4.617188 7.335938 4.597656 7.328125 4.578125 7.320313 L 1.886719 6.074219 Z M 4.507813 7.785156 L 4.808594 7.925781 C 4.753906 7.96875 4.726563 8.03125 4.726563 8.101563 C 4.726563 8.222656 4.824219 8.324219 4.949219 8.324219 C 5.074219 8.324219 5.175781 8.222656 5.175781 8.101563 C 5.175781 8.097656 5.175781 8.097656 5.175781 8.09375 L 6.757813 8.828125 C 6.78125 8.929688 6.871094 9 6.976563 9 C 7.011719 9 7.042969 8.992188 7.074219 8.976563 L 7.621094 9.226563 C 7.507813 9.242188 7.425781 9.335938 7.425781 9.449219 C 7.425781 9.574219 7.527344 9.675781 7.648438 9.675781 C 7.773438 9.675781 7.875 9.574219 7.875 9.449219 C 7.875 9.40625 7.863281 9.367188 7.839844 9.328125 L 8.90625 9.824219 C 8.964844 9.851563 9.035156 9.851563 9.09375 9.824219 L 10.160156 9.328125 C 10.136719 9.367188 10.125 9.40625 10.125 9.449219 C 10.125 9.574219 10.226563 9.675781 10.351563 9.675781 C 10.472656 9.675781 10.574219 9.574219 10.574219 9.449219 C 10.574219 9.335938 10.492188 9.242188 10.382813 9.226563 L 10.925781 8.976563 C 10.957031 8.992188 10.988281 9 11.023438 9 C 11.128906 9 11.21875 8.929688 11.242188 8.828125 L 12.824219 8.09375 C 12.824219 8.097656 12.824219 8.097656 12.824219 8.101563 C 12.824219 8.222656 12.925781 8.324219 13.050781 8.324219 C 13.175781 8.324219 13.273438 8.222656 13.273438 8.101563 C 13.273438 8.03125 13.246094 7.96875 13.191406 7.925781 L 13.492188 7.785156 L 14.175781 8.101563 C 14.175781 8.226563 14.277344 8.324219 14.398438 8.324219 C 14.453125 8.324219 14.503906 8.304688 14.542969 8.273438 L 16.113281 9 L 13.921875 10.015625 C 13.882813 9.945313 13.808594 9.898438 13.726563 9.898438 C 13.601563 9.898438 13.5 10 13.5 10.125 C 13.5 10.152344 13.503906 10.179688 13.515625 10.203125 L 13.390625 10.261719 L 11.824219 10.988281 C 11.886719 10.945313 11.925781 10.875 11.925781 10.800781 C 11.925781 10.675781 11.824219 10.574219 11.699219 10.574219 C 11.574219 10.574219 11.476563 10.675781 11.476563 10.800781 C 11.476563 10.925781 11.574219 11.023438 11.699219 11.023438 C 11.722656 11.023438 11.742188 11.023438 11.765625 11.015625 L 11.160156 11.296875 C 11.121094 11.265625 11.074219 11.25 11.023438 11.25 C 10.90625 11.25 10.808594 11.34375 10.800781 11.460938 L 9.21875 12.195313 C 9.222656 12.179688 9.226563 12.164063 9.226563 12.148438 C 9.226563 12.027344 9.125 11.925781 9 11.925781 C 8.875 11.925781 8.773438 12.027344 8.773438 12.148438 C 8.773438 12.164063 8.777344 12.179688 8.78125 12.195313 L 7.199219 11.460938 C 7.191406 11.34375 7.09375 11.25 6.976563 11.25 C 6.925781 11.25 6.878906 11.265625 6.839844 11.296875 L 6.238281 11.015625 C 6.257813 11.023438 6.277344 11.023438 6.300781 11.023438 C 6.425781 11.023438 6.523438 10.925781 6.523438 10.800781 C 6.523438 10.675781 6.425781 10.574219 6.300781 10.574219 C 6.175781 10.574219 6.074219 10.675781 6.074219 10.800781 C 6.074219 10.875 6.113281 10.945313 6.175781 10.988281 L 4.632813 10.273438 C 4.617188 10.261719 4.597656 10.253906 4.578125 10.246094 L 4.484375 10.203125 C 4.496094 10.179688 4.5 10.152344 4.5 10.125 C 4.5 10 4.398438 9.898438 4.273438 9.898438 C 4.195313 9.898438 4.117188 9.945313 4.078125 10.015625 L 1.886719 9 L 3.457031 8.273438 C 3.496094 8.304688 3.546875 8.324219 3.601563 8.324219 C 3.722656 8.324219 3.824219 8.226563 3.824219 8.101563 Z M 2.925781 8.550781 C 2.800781 8.550781 2.699219 8.652344 2.699219 8.773438 C 2.699219 8.898438 2.800781 9 2.925781 9 C 3.050781 9 3.148438 8.898438 3.148438 8.773438 C 3.148438 8.652344 3.050781 8.550781 2.925781 8.550781 Z M 4.273438 8.550781 C 4.152344 8.550781 4.050781 8.652344 4.050781 8.773438 C 4.050781 8.898438 4.152344 9 4.273438 9 C 4.398438 9 4.5 8.898438 4.5 8.773438 C 4.5 8.652344 4.398438 8.550781 4.273438 8.550781 Z M 5.625 8.550781 C 5.5 8.550781 5.398438 8.652344 5.398438 8.773438 C 5.398438 8.898438 5.5 9 5.625 9 C 5.75 9 5.851563 8.898438 5.851563 8.773438 C 5.851563 8.652344 5.75 8.550781 5.625 8.550781 Z M 12.375 8.550781 C 12.25 8.550781 12.148438 8.652344 12.148438 8.773438 C 12.148438 8.898438 12.25 9 12.375 9 C 12.5 9 12.601563 8.898438 12.601563 8.773438 C 12.601563 8.652344 12.5 8.550781 12.375 8.550781 Z M 13.726563 8.550781 C 13.601563 8.550781 13.5 8.652344 13.5 8.773438 C 13.5 8.898438 13.601563 9 13.726563 9 C 13.847656 9 13.949219 8.898438 13.949219 8.773438 C 13.949219 8.652344 13.847656 8.550781 13.726563 8.550781 Z M 15.074219 8.550781 C 14.949219 8.550781 14.851563 8.652344 14.851563 8.773438 C 14.851563 8.898438 14.949219 9 15.074219 9 C 15.199219 9 15.300781 8.898438 15.300781 8.773438 C 15.300781 8.652344 15.199219 8.550781 15.074219 8.550781 Z M 3.601563 9.226563 C 3.476563 9.226563 3.375 9.324219 3.375 9.449219 C 3.375 9.574219 3.476563 9.675781 3.601563 9.675781 C 3.722656 9.675781 3.824219 9.574219 3.824219 9.449219 C 3.824219 9.324219 3.722656 9.226563 3.601563 9.226563 Z M 4.949219 9.226563 C 4.824219 9.226563 4.726563 9.324219 4.726563 9.449219 C 4.726563 9.574219 4.824219 9.675781 4.949219 9.675781 C 5.074219 9.675781 5.175781 9.574219 5.175781 9.449219 C 5.175781 9.324219 5.074219 9.226563 4.949219 9.226563 Z M 6.300781 9.226563 C 6.175781 9.226563 6.074219 9.324219 6.074219 9.449219 C 6.074219 9.574219 6.175781 9.675781 6.300781 9.675781 C 6.425781 9.675781 6.523438 9.574219 6.523438 9.449219 C 6.523438 9.324219 6.425781 9.226563 6.300781 9.226563 Z M 11.699219 9.226563 C 11.574219 9.226563 11.476563 9.324219 11.476563 9.449219 C 11.476563 9.574219 11.574219 9.675781 11.699219 9.675781 C 11.824219 9.675781 11.925781 9.574219 11.925781 9.449219 C 11.925781 9.324219 11.824219 9.226563 11.699219 9.226563 Z M 13.050781 9.226563 C 12.925781 9.226563 12.824219 9.324219 12.824219 9.449219 C 12.824219 9.574219 12.925781 9.675781 13.050781 9.675781 C 13.175781 9.675781 13.273438 9.574219 13.273438 9.449219 C 13.273438 9.324219 13.175781 9.226563 13.050781 9.226563 Z M 14.398438 9.226563 C 14.277344 9.226563 14.175781 9.324219 14.175781 9.449219 C 14.175781 9.574219 14.277344 9.675781 14.398438 9.675781 C 14.523438 9.675781 14.625 9.574219 14.625 9.449219 C 14.625 9.324219 14.523438 9.226563 14.398438 9.226563 Z M 5.625 9.898438 C 5.5 9.898438 5.398438 10 5.398438 10.125 C 5.398438 10.25 5.5 10.351563 5.625 10.351563 C 5.75 10.351563 5.851563 10.25 5.851563 10.125 C 5.851563 10 5.75 9.898438 5.625 9.898438 Z M 6.976563 9.898438 C 6.851563 9.898438 6.75 10 6.75 10.125 C 6.75 10.25 6.851563 10.351563 6.976563 10.351563 C 7.097656 10.351563 7.199219 10.25 7.199219 10.125 C 7.199219 10 7.097656 9.898438 6.976563 9.898438 Z M 8.324219 9.898438 C 8.199219 9.898438 8.101563 10 8.101563 10.125 C 8.101563 10.25 8.199219 10.351563 8.324219 10.351563 C 8.449219 10.351563 8.550781 10.25 8.550781 10.125 C 8.550781 10 8.449219 9.898438 8.324219 9.898438 Z M 9.675781 9.898438 C 9.550781 9.898438 9.449219 10 9.449219 10.125 C 9.449219 10.25 9.550781 10.351563 9.675781 10.351563 C 9.800781 10.351563 9.898438 10.25 9.898438 10.125 C 9.898438 10 9.800781 9.898438 9.675781 9.898438 Z M 11.023438 9.898438 C 10.902344 9.898438 10.800781 10 10.800781 10.125 C 10.800781 10.25 10.902344 10.351563 11.023438 10.351563 C 11.148438 10.351563 11.25 10.25 11.25 10.125 C 11.25 10 11.148438 9.898438 11.023438 9.898438 Z M 12.375 9.898438 C 12.25 9.898438 12.148438 10 12.148438 10.125 C 12.148438 10.25 12.25 10.351563 12.375 10.351563 C 12.5 10.351563 12.601563 10.25 12.601563 10.125 C 12.601563 10 12.5 9.898438 12.375 9.898438 Z M 7.648438 10.574219 C 7.527344 10.574219 7.425781 10.675781 7.425781 10.800781 C 7.425781 10.925781 7.527344 11.023438 7.648438 11.023438 C 7.773438 11.023438 7.875 10.925781 7.875 10.800781 C 7.875 10.675781 7.773438 10.574219 7.648438 10.574219 Z M 9 10.574219 C 8.875 10.574219 8.773438 10.675781 8.773438 10.800781 C 8.773438 10.925781 8.875 11.023438 9 11.023438 C 9.125 11.023438 9.226563 10.925781 9.226563 10.800781 C 9.226563 10.675781 9.125 10.574219 9 10.574219 Z M 10.351563 10.574219 C 10.226563 10.574219 10.125 10.675781 10.125 10.800781 C 10.125 10.925781 10.226563 11.023438 10.351563 11.023438 C 10.472656 11.023438 10.574219 10.925781 10.574219 10.800781 C 10.574219 10.675781 10.472656 10.574219 10.351563 10.574219 Z M 4.507813 10.710938 L 8.90625 12.75 C 8.964844 12.777344 9.035156 12.777344 9.09375 12.75 L 13.492188 10.710938 L 16.113281 11.925781 L 9 15.222656 L 1.886719 11.925781 Z M 8.324219 11.25 C 8.199219 11.25 8.101563 11.351563 8.101563 11.476563 C 8.101563 11.597656 8.199219 11.699219 8.324219 11.699219 C 8.449219 11.699219 8.550781 11.597656 8.550781 11.476563 C 8.550781 11.351563 8.449219 11.25 8.324219 11.25 Z M 9.675781 11.25 C 9.550781 11.25 9.449219 11.351563 9.449219 11.476563 C 9.449219 11.597656 9.550781 11.699219 9.675781 11.699219 C 9.800781 11.699219 9.898438 11.597656 9.898438 11.476563 C 9.898438 11.351563 9.800781 11.25 9.675781 11.25 Z "/>
</g>
</svg>
