<?xml version="1.0" encoding="UTF-8"?>
<svg xmlns="http://www.w3.org/2000/svg" xmlns:xlink="http://www.w3.org/1999/xlink" width="18pt" height="18pt" viewBox="0 0 18 18" version="1.1">
<g id="surface1">
<path style=" stroke:none;fill-rule:nonzero;fill:#000000;fill-opacity:1;" d="M 0 1.078125 L 0 11.878906 L 5.828125 11.878906 L 5.109375 11.160156 L 0.71875 11.160156 L 0.71875 1.800781 L 17.28125 1.800781 L 17.28125 11.160156 L 10.734375 11.160156 L 11.453125 11.878906 L 18 11.878906 L 18 1.078125 Z M 1.078125 2.160156 L 1.078125 3.238281 L 1.800781 3.238281 L 1.800781 2.160156 Z M 3.238281 2.160156 L 3.238281 3.238281 L 3.960938 3.238281 L 3.960938 2.160156 Z M 5.398438 2.160156 L 5.398438 3.238281 L 6.121094 3.238281 L 6.121094 2.160156 Z M 7.558594 2.160156 L 7.558594 3.238281 L 8.28125 3.238281 L 8.28125 2.160156 Z M 9.71875 2.160156 L 9.71875 3.238281 L 10.441406 3.238281 L 10.441406 2.160156 Z M 11.878906 2.160156 L 11.878906 3.238281 L 12.601563 3.238281 L 12.601563 2.160156 Z M 14.039063 2.160156 L 14.039063 3.238281 L 14.761719 3.238281 L 14.761719 2.160156 Z M 16.199219 2.160156 L 16.199219 3.238281 L 16.921875 3.238281 L 16.921875 2.160156 Z M 4.960938 7.886719 C 4.855469 7.898438 4.761719 7.957031 4.699219 8.046875 C 4.644531 8.136719 4.625 8.246094 4.65625 8.347656 L 5.265625 10.507813 C 5.285156 10.5625 5.320313 10.613281 5.367188 10.652344 L 11.992188 17.3125 L 12.09375 17.425781 C 12.101563 17.433594 12.109375 17.441406 12.117188 17.449219 C 12.128906 17.464844 12.144531 17.480469 12.160156 17.492188 C 12.164063 17.492188 12.167969 17.492188 12.171875 17.492188 L 12.238281 17.574219 C 12.816406 18.148438 13.757813 18.148438 14.332031 17.574219 C 14.910156 16.996094 14.910156 16.054688 14.332031 15.480469 L 14.253906 15.402344 C 14.238281 15.378906 14.21875 15.363281 14.199219 15.34375 C 14.191406 15.339844 14.191406 15.339844 14.1875 15.332031 L 14.074219 15.234375 L 7.414063 8.605469 C 7.375 8.5625 7.324219 8.527344 7.265625 8.503906 L 5.109375 7.898438 C 5.058594 7.882813 5.011719 7.878906 4.960938 7.886719 Z M 6.953125 9.167969 L 6.976563 9.179688 L 13.566406 15.738281 L 12.5 16.808594 L 5.941406 10.214844 L 5.929688 10.191406 Z M 1.078125 9.71875 L 1.078125 10.800781 L 1.800781 10.800781 L 1.800781 9.71875 Z M 3.238281 9.71875 L 3.238281 10.800781 L 3.960938 10.800781 L 3.960938 9.71875 Z M 9.71875 9.71875 L 9.71875 10.078125 L 10.441406 10.800781 L 10.441406 9.71875 Z M 11.878906 9.71875 L 11.878906 10.800781 L 12.601563 10.800781 L 12.601563 9.71875 Z M 14.039063 9.71875 L 14.039063 10.800781 L 14.761719 10.800781 L 14.761719 9.71875 Z M 16.199219 9.71875 L 16.199219 10.800781 L 16.921875 10.800781 L 16.921875 9.71875 Z "/>
</g>
</svg>
