<?xml version="1.0" encoding="UTF-8"?>
<svg xmlns="http://www.w3.org/2000/svg" xmlns:xlink="http://www.w3.org/1999/xlink" width="18pt" height="18pt" viewBox="0 0 18 18" version="1.1">
<g id="surface1">
<path style=" stroke:none;fill-rule:nonzero;fill:#000000;fill-opacity:1;" d="M 9 0.0351563 L 8.742188 0.28125 L 5.679688 3.339844 C 5.539063 3.484375 5.539063 3.714844 5.679688 3.859375 C 5.824219 4.003906 6.054688 4.003906 6.199219 3.859375 L 8.640625 1.417969 L 8.640625 8.640625 L 1.417969 8.640625 L 3.859375 6.199219 C 3.976563 6.089844 4.007813 5.917969 3.9375 5.777344 C 3.867188 5.632813 3.710938 5.554688 3.554688 5.578125 C 3.476563 5.589844 3.398438 5.625 3.339844 5.679688 L 0.28125 8.742188 L 0.0351563 9 L 0.28125 9.257813 L 3.339844 12.320313 C 3.484375 12.460938 3.714844 12.460938 3.859375 12.320313 C 4.003906 12.175781 4.003906 11.945313 3.859375 11.800781 L 1.417969 9.359375 L 8.640625 9.359375 L 8.640625 16.582031 L 6.199219 14.140625 C 6.113281 14.050781 5.984375 14.011719 5.859375 14.039063 C 5.726563 14.0625 5.617188 14.164063 5.578125 14.292969 C 5.542969 14.425781 5.582031 14.566406 5.679688 14.660156 L 8.742188 17.71875 L 9 17.964844 L 9.257813 17.71875 L 12.320313 14.660156 C 12.460938 14.515625 12.460938 14.285156 12.320313 14.140625 C 12.175781 13.996094 11.945313 13.996094 11.800781 14.140625 L 9.359375 16.582031 L 9.359375 9.359375 L 16.582031 9.359375 L 14.140625 11.800781 C 13.996094 11.945313 13.996094 12.175781 14.140625 12.320313 C 14.285156 12.460938 14.515625 12.460938 14.660156 12.320313 L 17.71875 9.257813 L 17.964844 9 L 17.71875 8.742188 L 14.660156 5.679688 C 14.585938 5.601563 14.476563 5.558594 14.367188 5.570313 C 14.351563 5.570313 14.335938 5.574219 14.320313 5.578125 C 14.1875 5.605469 14.078125 5.703125 14.039063 5.832031 C 14.003906 5.964844 14.042969 6.105469 14.140625 6.199219 L 16.582031 8.640625 L 9.359375 8.640625 L 9.359375 1.417969 L 11.800781 3.859375 C 11.945313 4.003906 12.175781 4.003906 12.320313 3.859375 C 12.460938 3.714844 12.460938 3.484375 12.320313 3.339844 L 9.257813 0.28125 Z "/>
</g>
</svg>
