<?xml version="1.0" encoding="UTF-8"?>
<svg xmlns="http://www.w3.org/2000/svg" xmlns:xlink="http://www.w3.org/1999/xlink" width="18pt" height="18pt" viewBox="0 0 18 18" version="1.1">
<g id="surface1">
<path style=" stroke:none;fill-rule:nonzero;fill:#000000;fill-opacity:1;" d="M 6.839844 0 L 6.839844 2.160156 L 7.558594 2.878906 L 7.558594 0.71875 L 12.960938 0.71875 L 12.960938 5.039063 L 17.28125 5.039063 L 17.28125 14.398438 L 11.878906 14.398438 L 11.878906 15.121094 L 18 15.121094 L 18 4.535156 L 13.464844 0 Z M 13.679688 1.226563 L 16.773438 4.320313 L 13.679688 4.320313 Z M 0 2.878906 L 0 18 L 11.160156 18 L 11.160156 7.414063 L 11.058594 7.300781 L 6.738281 2.980469 L 6.625 2.878906 Z M 0.71875 3.601563 L 6.121094 3.601563 L 6.121094 7.921875 L 10.441406 7.921875 L 10.441406 17.28125 L 0.71875 17.28125 Z M 6.839844 4.117188 L 9.921875 7.199219 L 6.839844 7.199219 Z "/>
</g>
</svg>
