<?xml version="1.0" encoding="UTF-8"?>
<svg xmlns="http://www.w3.org/2000/svg" xmlns:xlink="http://www.w3.org/1999/xlink" width="18pt" height="18pt" viewBox="0 0 18 18" version="1.1">
<g id="surface1">
<path style=" stroke:none;fill-rule:nonzero;fill:#000000;fill-opacity:1;" d="M 1.441406 0 L 1.441406 17.28125 L 9.359375 17.28125 C 9.488281 17.28125 9.609375 17.214844 9.675781 17.101563 C 9.742188 16.988281 9.742188 16.851563 9.675781 16.738281 C 9.609375 16.625 9.488281 16.558594 9.359375 16.558594 L 2.160156 16.558594 L 2.160156 0.71875 L 8.640625 0.71875 L 8.640625 5.761719 L 13.679688 5.761719 L 13.679688 10.800781 C 13.679688 10.929688 13.746094 11.050781 13.859375 11.117188 C 13.972656 11.179688 14.109375 11.179688 14.222656 11.117188 C 14.332031 11.050781 14.402344 10.929688 14.398438 10.800781 L 14.398438 5.253906 L 14.296875 5.140625 L 9.257813 0.101563 L 9.144531 0 Z M 9.359375 1.238281 L 13.164063 5.039063 L 9.359375 5.039063 Z M 11.125 10.789063 C 11.109375 10.792969 11.09375 10.796875 11.082031 10.800781 C 10.945313 10.824219 10.839844 10.921875 10.800781 11.054688 C 10.761719 11.183594 10.800781 11.324219 10.902344 11.417969 L 13.882813 14.398438 L 10.902344 17.382813 C 10.757813 17.523438 10.757813 17.753906 10.902344 17.898438 C 11.042969 18.042969 11.273438 18.042969 11.417969 17.898438 L 14.398438 14.917969 L 17.382813 17.898438 C 17.523438 18.042969 17.753906 18.042969 17.898438 17.898438 C 18.042969 17.753906 18.042969 17.523438 17.898438 17.382813 L 14.917969 14.398438 L 17.898438 11.417969 C 18.015625 11.308594 18.046875 11.140625 17.976563 10.996094 C 17.90625 10.851563 17.75 10.773438 17.59375 10.800781 C 17.515625 10.808594 17.4375 10.84375 17.382813 10.902344 L 14.398438 13.882813 L 11.417969 10.902344 C 11.34375 10.820313 11.234375 10.78125 11.125 10.789063 Z "/>
</g>
</svg>
