<?xml version="1.0" encoding="UTF-8"?>
<svg xmlns="http://www.w3.org/2000/svg" xmlns:xlink="http://www.w3.org/1999/xlink" width="18pt" height="18pt" viewBox="0 0 18 18" version="1.1">
<g id="surface1">
<path style=" stroke:none;fill-rule:nonzero;fill:#000000;fill-opacity:1;" d="M 0.640625 -0.0117188 C 0.46875 0.0273438 0.347656 0.183594 0.347656 0.359375 L 0.347656 17.640625 C 0.351563 17.84375 0.515625 18.011719 0.71875 18.011719 L 11.519531 18.011719 C 11.722656 18.011719 11.890625 17.84375 11.890625 17.640625 L 11.890625 14.039063 L 11.148438 14.039063 L 11.148438 17.269531 L 1.089844 17.269531 L 1.089844 0.730469 L 11.148438 0.730469 L 11.148438 3.960938 L 11.890625 3.960938 L 11.890625 0.359375 C 11.890625 0.15625 11.722656 -0.0117188 11.519531 -0.0117188 L 0.71875 -0.0117188 C 0.691406 -0.015625 0.667969 -0.015625 0.640625 -0.0117188 Z M 8.921875 5.433594 C 8.839844 5.445313 8.765625 5.484375 8.707031 5.546875 L 5.5 8.742188 L 5.253906 9 L 5.5 9.257813 L 8.707031 12.453125 C 8.792969 12.5625 8.933594 12.609375 9.070313 12.578125 C 9.203125 12.546875 9.308594 12.441406 9.339844 12.308594 C 9.371094 12.175781 9.320313 12.035156 9.214844 11.949219 L 6.636719 9.359375 L 17.28125 9.359375 C 17.410156 9.363281 17.53125 9.292969 17.597656 9.179688 C 17.660156 9.070313 17.660156 8.929688 17.597656 8.820313 C 17.53125 8.707031 17.410156 8.636719 17.28125 8.640625 L 6.636719 8.640625 L 9.214844 6.050781 C 9.328125 5.945313 9.359375 5.777344 9.292969 5.636719 C 9.226563 5.496094 9.074219 5.414063 8.921875 5.433594 Z "/>
</g>
</svg>
