<?xml version="1.0" encoding="UTF-8"?>
<svg xmlns="http://www.w3.org/2000/svg" xmlns:xlink="http://www.w3.org/1999/xlink" width="18pt" height="18pt" viewBox="0 0 18 18" version="1.1">
<g id="surface1">
<path style=" stroke:none;fill-rule:nonzero;fill:#000000;fill-opacity:1;" d="M 7.558594 1.078125 C 4.183594 1.078125 1.441406 3.824219 1.441406 7.199219 C 1.441406 10.578125 4.183594 13.320313 7.558594 13.320313 C 8.894531 13.320313 10.128906 12.890625 11.136719 12.160156 L 15.875 16.886719 L 16.886719 15.875 L 12.207031 11.183594 C 13.125 10.109375 13.679688 8.71875 13.679688 7.199219 C 13.679688 3.824219 10.9375 1.078125 7.558594 1.078125 Z M 7.558594 1.800781 C 10.546875 1.800781 12.960938 4.214844 12.960938 7.199219 C 12.960938 10.1875 10.546875 12.601563 7.558594 12.601563 C 4.574219 12.601563 2.160156 10.1875 2.160156 7.199219 C 2.160156 4.214844 4.574219 1.800781 7.558594 1.800781 Z "/>
</g>
</svg>
