<?xml version="1.0" encoding="UTF-8"?>
<svg xmlns="http://www.w3.org/2000/svg" xmlns:xlink="http://www.w3.org/1999/xlink" width="18pt" height="18pt" viewBox="0 0 18 18" version="1.1">
<g id="surface1">
<path style=" stroke:none;fill-rule:nonzero;fill:#000000;fill-opacity:1;" d="M 12.992188 0 C 12.671875 0 12.316406 0.179688 12.027344 0.539063 L 9.035156 4.714844 C 8.601563 4.605469 8.171875 4.566406 7.738281 4.566406 C 6.960938 4.566406 6.21875 4.738281 5.535156 5.027344 L 5.523438 5.027344 L 1.261719 0.753906 C 1.183594 0.671875 1.078125 0.632813 0.96875 0.640625 C 0.828125 0.65625 0.707031 0.75 0.664063 0.882813 C 0.617188 1.015625 0.652344 1.164063 0.753906 1.261719 L 16.738281 17.246094 C 16.828125 17.351563 16.964844 17.402344 17.101563 17.371094 C 17.234375 17.339844 17.339844 17.234375 17.371094 17.101563 C 17.402344 16.964844 17.351563 16.828125 17.246094 16.738281 L 12.972656 12.464844 C 13.441406 11.351563 13.550781 10.078125 13.253906 8.886719 L 17.460938 6.007813 C 17.785156 5.753906 17.964844 5.429688 18 5.109375 C 18 4.890625 17.929688 4.679688 17.785156 4.5 L 13.535156 0.214844 C 13.390625 0.0703125 13.171875 0 12.992188 0 Z M 12.992188 0.71875 L 13.027344 0.71875 L 17.28125 5.007813 L 17.28125 5.039063 C 17.28125 5.148438 17.210938 5.292969 17.03125 5.398438 L 12.632813 8.390625 L 12.601563 8.425781 C 12.492188 8.535156 12.414063 8.675781 12.488281 8.820313 C 12.804688 9.863281 12.761719 10.925781 12.410156 11.902344 L 6.097656 5.589844 C 6.621094 5.410156 7.171875 5.332031 7.738281 5.332031 C 8.207031 5.332031 8.679688 5.402344 9.113281 5.511719 C 9.257813 5.550781 9.398438 5.507813 9.507813 5.367188 L 12.601563 0.96875 C 12.742188 0.789063 12.886719 0.71875 12.992188 0.71875 Z M 4.253906 5.761719 C 4.074219 5.902344 3.890625 6.050781 3.710938 6.234375 C 3.640625 6.304688 3.601563 6.371094 3.601563 6.480469 C 3.601563 6.589844 3.640625 6.65625 3.710938 6.726563 L 6.390625 9.417969 L 0.078125 17.414063 C -0.0351563 17.558594 -0.0234375 17.765625 0.105469 17.894531 C 0.234375 18.023438 0.441406 18.035156 0.585938 17.921875 L 8.5625 11.585938 L 11.226563 14.253906 C 11.300781 14.324219 11.414063 14.367188 11.484375 14.367188 C 11.558594 14.367188 11.660156 14.324219 11.734375 14.253906 C 11.914063 14.074219 12.0625 13.894531 12.207031 13.714844 L 11.699219 13.207031 C 11.628906 13.316406 11.558594 13.390625 11.484375 13.5 L 4.5 6.515625 C 4.570313 6.441406 4.683594 6.371094 4.792969 6.300781 Z M 6.894531 9.921875 L 8.054688 11.082031 L 2.542969 15.445313 Z "/>
</g>
</svg>
