<?xml version="1.0" encoding="UTF-8"?>
<svg xmlns="http://www.w3.org/2000/svg" xmlns:xlink="http://www.w3.org/1999/xlink" width="18pt" height="18pt" viewBox="0 0 18 18" version="1.1">
<g id="surface1">
<path style=" stroke:none;fill-rule:nonzero;fill:#000000;fill-opacity:1;" d="M 9 2.519531 C 8.332031 2.519531 7.773438 2.984375 7.613281 3.601563 L 1.078125 3.601563 C 0.949219 3.597656 0.828125 3.667969 0.761719 3.777344 C 0.699219 3.890625 0.699219 4.027344 0.761719 4.140625 C 0.828125 4.253906 0.949219 4.320313 1.078125 4.320313 L 7.613281 4.320313 C 7.773438 4.9375 8.332031 5.398438 9 5.398438 C 9.667969 5.398438 10.226563 4.9375 10.386719 4.320313 L 16.921875 4.320313 C 17.050781 4.320313 17.171875 4.253906 17.238281 4.140625 C 17.300781 4.027344 17.300781 3.890625 17.238281 3.777344 C 17.171875 3.667969 17.050781 3.597656 16.921875 3.601563 L 10.386719 3.601563 C 10.226563 2.984375 9.667969 2.519531 9 2.519531 Z M 9 3.238281 C 9.390625 3.238281 9.699219 3.539063 9.714844 3.925781 C 9.714844 3.949219 9.714844 3.972656 9.714844 3.992188 C 9.699219 4.378906 9.390625 4.679688 9 4.679688 C 8.609375 4.679688 8.300781 4.378906 8.285156 3.992188 C 8.285156 3.972656 8.285156 3.949219 8.285156 3.925781 C 8.300781 3.539063 8.609375 3.238281 9 3.238281 Z M 14.039063 7.558594 C 13.375 7.558594 12.8125 8.023438 12.652344 8.640625 L 1.078125 8.640625 C 0.949219 8.636719 0.828125 8.707031 0.761719 8.820313 C 0.699219 8.929688 0.699219 9.070313 0.761719 9.179688 C 0.828125 9.292969 0.949219 9.363281 1.078125 9.359375 L 12.652344 9.359375 C 12.8125 9.976563 13.375 10.441406 14.039063 10.441406 C 14.707031 10.441406 15.265625 9.976563 15.429688 9.359375 L 16.921875 9.359375 C 17.050781 9.363281 17.171875 9.292969 17.238281 9.179688 C 17.300781 9.070313 17.300781 8.929688 17.238281 8.820313 C 17.171875 8.707031 17.050781 8.636719 16.921875 8.640625 L 15.429688 8.640625 C 15.265625 8.023438 14.707031 7.558594 14.039063 7.558594 Z M 14.039063 8.28125 C 14.429688 8.28125 14.738281 8.582031 14.753906 8.96875 C 14.753906 8.988281 14.753906 9.011719 14.753906 9.035156 C 14.738281 9.417969 14.429688 9.71875 14.039063 9.71875 C 13.648438 9.71875 13.339844 9.417969 13.324219 9.03125 C 13.324219 9.011719 13.324219 8.988281 13.324219 8.964844 C 13.339844 8.582031 13.648438 8.28125 14.039063 8.28125 Z M 5.039063 12.601563 C 4.375 12.601563 3.8125 13.0625 3.652344 13.679688 L 1.078125 13.679688 C 0.949219 13.679688 0.828125 13.746094 0.761719 13.859375 C 0.699219 13.972656 0.699219 14.109375 0.761719 14.222656 C 0.828125 14.332031 0.949219 14.402344 1.078125 14.398438 L 3.652344 14.398438 C 3.8125 15.015625 4.375 15.480469 5.039063 15.480469 C 5.707031 15.480469 6.265625 15.015625 6.429688 14.398438 L 16.921875 14.398438 C 17.050781 14.402344 17.171875 14.332031 17.238281 14.222656 C 17.300781 14.109375 17.300781 13.972656 17.238281 13.859375 C 17.171875 13.746094 17.050781 13.679688 16.921875 13.679688 L 6.429688 13.679688 C 6.265625 13.0625 5.707031 12.601563 5.039063 12.601563 Z M 5.039063 13.320313 C 5.429688 13.320313 5.738281 13.621094 5.753906 14.007813 C 5.753906 14.027344 5.753906 14.050781 5.753906 14.074219 C 5.738281 14.460938 5.429688 14.761719 5.039063 14.761719 C 4.648438 14.761719 4.339844 14.460938 4.324219 14.074219 C 4.324219 14.050781 4.324219 14.027344 4.324219 14.007813 C 4.339844 13.621094 4.648438 13.320313 5.039063 13.320313 Z "/>
</g>
</svg>
