<?xml version="1.0" encoding="UTF-8"?>
<svg xmlns="http://www.w3.org/2000/svg" xmlns:xlink="http://www.w3.org/1999/xlink" width="18pt" height="18pt" viewBox="0 0 18 18" version="1.1">
<g id="surface1">
<path style=" stroke:none;fill-rule:nonzero;fill:#000000;fill-opacity:1;" d="M 0 1.441406 L 0 16.558594 L 18 16.558594 L 18 1.441406 Z M 0.71875 2.160156 L 17.28125 2.160156 L 17.28125 15.839844 L 0.71875 15.839844 Z M 1.800781 3.238281 L 1.800781 10.621094 C 1.742188 10.726563 1.742188 10.851563 1.800781 10.957031 L 1.800781 14.761719 L 16.199219 14.761719 L 16.199219 11.070313 C 16.207031 11.03125 16.207031 10.996094 16.199219 10.957031 L 16.199219 3.238281 Z M 2.519531 3.960938 L 15.480469 3.960938 L 15.480469 10.472656 L 12.734375 9.382813 C 12.640625 9.34375 12.535156 9.347656 12.441406 9.394531 L 9.832031 10.699219 L 6.414063 5.90625 C 6.332031 5.796875 6.199219 5.738281 6.0625 5.761719 C 5.980469 5.773438 5.90625 5.820313 5.851563 5.882813 L 2.519531 9.777344 Z M 11.878906 5.398438 C 11.089844 5.398438 10.441406 6.046875 10.441406 6.839844 C 10.441406 7.632813 11.089844 8.28125 11.878906 8.28125 C 12.671875 8.28125 13.320313 7.632813 13.320313 6.839844 C 13.320313 6.046875 12.671875 5.398438 11.878906 5.398438 Z M 11.878906 6.121094 C 12.28125 6.121094 12.601563 6.4375 12.601563 6.839844 C 12.601563 7.242188 12.28125 7.558594 11.878906 7.558594 C 11.476563 7.558594 11.160156 7.242188 11.160156 6.839844 C 11.160156 6.4375 11.476563 6.121094 11.878906 6.121094 Z M 6.085938 6.703125 L 9.425781 11.375 C 9.53125 11.515625 9.71875 11.5625 9.878906 11.484375 L 12.609375 10.113281 L 15.480469 11.261719 L 15.480469 14.039063 L 2.519531 14.039063 L 2.519531 10.867188 Z "/>
</g>
</svg>
