<?xml version="1.0" encoding="UTF-8"?>
<svg xmlns="http://www.w3.org/2000/svg" xmlns:xlink="http://www.w3.org/1999/xlink" width="18pt" height="18pt" viewBox="0 0 18 18" version="1.1">
<g id="surface1">
<path style=" stroke:none;fill-rule:nonzero;fill:#000000;fill-opacity:1;" d="M 7.558594 0.71875 C 6.96875 0.71875 6.480469 1.207031 6.480469 1.800781 L 6.480469 2.519531 L 3.65625 2.519531 C 3.636719 2.515625 3.613281 2.515625 3.59375 2.515625 C 3.578125 2.515625 3.558594 2.515625 3.542969 2.519531 L 2.878906 2.519531 C 2.75 2.519531 2.628906 2.585938 2.5625 2.699219 C 2.5 2.8125 2.5 2.949219 2.5625 3.0625 C 2.628906 3.171875 2.75 3.242188 2.878906 3.238281 L 3.238281 3.238281 L 3.238281 16.199219 C 3.238281 16.792969 3.726563 17.28125 4.320313 17.28125 L 13.679688 17.28125 C 14.273438 17.28125 14.761719 16.792969 14.761719 16.199219 L 14.761719 3.238281 L 15.121094 3.238281 C 15.25 3.242188 15.371094 3.171875 15.4375 3.0625 C 15.5 2.949219 15.5 2.8125 15.4375 2.699219 C 15.371094 2.585938 15.25 2.519531 15.121094 2.519531 L 14.460938 2.519531 C 14.421875 2.511719 14.382813 2.511719 14.34375 2.519531 L 11.519531 2.519531 L 11.519531 1.800781 C 11.519531 1.207031 11.03125 0.71875 10.441406 0.71875 Z M 7.558594 1.441406 L 10.441406 1.441406 C 10.640625 1.441406 10.800781 1.601563 10.800781 1.800781 L 10.800781 2.519531 L 7.199219 2.519531 L 7.199219 1.800781 C 7.199219 1.601563 7.359375 1.441406 7.558594 1.441406 Z M 3.960938 3.238281 L 6.78125 3.238281 C 6.820313 3.246094 6.859375 3.246094 6.898438 3.238281 L 11.097656 3.238281 C 11.136719 3.246094 11.179688 3.246094 11.21875 3.238281 L 14.039063 3.238281 L 14.039063 16.199219 C 14.039063 16.398438 13.878906 16.558594 13.679688 16.558594 L 4.320313 16.558594 C 4.121094 16.558594 3.960938 16.398438 3.960938 16.199219 Z M 6.835938 5.035156 C 6.636719 5.039063 6.476563 5.203125 6.480469 5.398438 L 6.480469 14.398438 C 6.476563 14.53125 6.546875 14.652344 6.660156 14.714844 C 6.769531 14.78125 6.910156 14.78125 7.023438 14.714844 C 7.132813 14.652344 7.203125 14.53125 7.199219 14.398438 L 7.199219 5.398438 C 7.203125 5.300781 7.164063 5.210938 7.09375 5.140625 C 7.027344 5.070313 6.933594 5.035156 6.835938 5.035156 Z M 8.996094 5.035156 C 8.796875 5.039063 8.636719 5.203125 8.640625 5.398438 L 8.640625 14.398438 C 8.636719 14.53125 8.707031 14.652344 8.820313 14.714844 C 8.929688 14.78125 9.070313 14.78125 9.179688 14.714844 C 9.292969 14.652344 9.363281 14.53125 9.359375 14.398438 L 9.359375 5.398438 C 9.363281 5.300781 9.324219 5.210938 9.253906 5.140625 C 9.183594 5.070313 9.089844 5.035156 8.996094 5.035156 Z M 11.15625 5.035156 C 10.957031 5.039063 10.796875 5.203125 10.800781 5.398438 L 10.800781 14.398438 C 10.796875 14.53125 10.867188 14.652344 10.976563 14.714844 C 11.089844 14.78125 11.230469 14.78125 11.339844 14.714844 C 11.453125 14.652344 11.523438 14.53125 11.519531 14.398438 L 11.519531 5.398438 C 11.519531 5.300781 11.484375 5.210938 11.414063 5.140625 C 11.34375 5.070313 11.25 5.035156 11.15625 5.035156 Z "/>
</g>
</svg>
