<?xml version="1.0" encoding="UTF-8"?>
<svg xmlns="http://www.w3.org/2000/svg" xmlns:xlink="http://www.w3.org/1999/xlink" width="18pt" height="18pt" viewBox="0 0 18 18" version="1.1">
<g id="surface1">
<path style=" stroke:none;fill-rule:nonzero;fill:#000000;fill-opacity:1;" d="M 5.332031 0 C 5.160156 0.03125 5.039063 0.183594 5.039063 0.359375 L 5.039063 0.71875 L 2.125 0.71875 C 1.550781 0.71875 1.078125 1.191406 1.078125 1.765625 L 1.078125 15.480469 C 1.078125 16.070313 1.550781 16.558594 2.125 16.558594 L 5.761719 16.558594 L 5.761719 15.839844 L 2.125 15.839844 C 1.984375 15.839844 1.800781 15.679688 1.800781 15.480469 L 1.800781 1.765625 C 1.800781 1.621094 1.984375 1.441406 2.125 1.441406 L 5.039063 1.441406 L 5.039063 2.160156 L 2.519531 2.160156 L 2.519531 15.121094 L 5.761719 15.121094 L 5.761719 14.398438 L 3.238281 14.398438 L 3.238281 2.878906 L 5.039063 2.878906 L 5.039063 3.238281 C 5.039063 3.4375 5.203125 3.601563 5.398438 3.601563 L 10.441406 3.601563 C 10.636719 3.601563 10.800781 3.4375 10.800781 3.238281 L 10.800781 2.878906 L 12.601563 2.878906 L 12.601563 5.039063 L 13.320313 5.039063 L 13.320313 2.160156 L 10.800781 2.160156 L 10.800781 1.441406 L 13.714844 1.441406 C 13.855469 1.441406 14.039063 1.621094 14.039063 1.765625 L 14.039063 5.039063 L 14.761719 5.039063 L 14.761719 1.765625 C 14.761719 1.191406 14.289063 0.71875 13.714844 0.71875 L 10.800781 0.71875 L 10.800781 0.359375 C 10.800781 0.160156 10.636719 0 10.441406 0 L 5.398438 0 C 5.390625 0 5.378906 0 5.367188 0 C 5.355469 0 5.34375 0 5.332031 0 Z M 5.761719 0.71875 L 10.078125 0.71875 L 10.078125 2.878906 L 5.761719 2.878906 Z M 6.414063 5.398438 C 6.242188 5.433594 6.117188 5.585938 6.121094 5.761719 L 6.121094 17.640625 C 6.121094 17.839844 6.28125 18 6.480469 18 L 16.558594 18 C 16.757813 18 16.921875 17.839844 16.921875 17.640625 L 16.921875 5.761719 C 16.921875 5.5625 16.757813 5.398438 16.558594 5.398438 L 6.480469 5.398438 C 6.46875 5.398438 6.457031 5.398438 6.445313 5.398438 C 6.433594 5.398438 6.421875 5.398438 6.414063 5.398438 Z M 6.839844 6.121094 L 16.199219 6.121094 L 16.199219 17.28125 L 6.839844 17.28125 Z M 8.539063 8.28125 C 8.339844 8.308594 8.203125 8.492188 8.230469 8.691406 C 8.257813 8.890625 8.441406 9.027344 8.640625 9 L 14.761719 9 C 14.890625 9 15.011719 8.933594 15.078125 8.820313 C 15.140625 8.707031 15.140625 8.570313 15.078125 8.457031 C 15.011719 8.347656 14.890625 8.277344 14.761719 8.28125 L 8.640625 8.28125 C 8.628906 8.28125 8.617188 8.28125 8.605469 8.28125 C 8.59375 8.28125 8.582031 8.28125 8.574219 8.28125 C 8.5625 8.28125 8.550781 8.28125 8.539063 8.28125 Z M 8.539063 10.441406 C 8.339844 10.46875 8.203125 10.652344 8.230469 10.851563 C 8.257813 11.050781 8.441406 11.1875 8.640625 11.160156 L 12.960938 11.160156 C 13.089844 11.160156 13.210938 11.09375 13.277344 10.980469 C 13.339844 10.867188 13.339844 10.730469 13.277344 10.617188 C 13.210938 10.507813 13.089844 10.4375 12.960938 10.441406 L 8.640625 10.441406 C 8.628906 10.441406 8.617188 10.441406 8.605469 10.441406 C 8.59375 10.441406 8.582031 10.441406 8.574219 10.441406 C 8.5625 10.441406 8.550781 10.441406 8.539063 10.441406 Z M 8.539063 12.601563 C 8.339844 12.628906 8.203125 12.8125 8.230469 13.011719 C 8.257813 13.207031 8.441406 13.347656 8.640625 13.320313 L 14.761719 13.320313 C 14.890625 13.320313 15.011719 13.253906 15.078125 13.140625 C 15.140625 13.027344 15.140625 12.890625 15.078125 12.777344 C 15.011719 12.667969 14.890625 12.597656 14.761719 12.601563 L 8.640625 12.601563 C 8.628906 12.601563 8.617188 12.601563 8.605469 12.601563 C 8.59375 12.601563 8.582031 12.601563 8.574219 12.601563 C 8.5625 12.601563 8.550781 12.601563 8.539063 12.601563 Z M 8.539063 14.761719 C 8.339844 14.789063 8.203125 14.972656 8.230469 15.171875 C 8.257813 15.367188 8.441406 15.507813 8.640625 15.480469 L 12.960938 15.480469 C 13.089844 15.480469 13.210938 15.414063 13.277344 15.300781 C 13.339844 15.1875 13.339844 15.050781 13.277344 14.9375 C 13.210938 14.824219 13.089844 14.757813 12.960938 14.761719 L 8.640625 14.761719 C 8.628906 14.761719 8.617188 14.761719 8.605469 14.761719 C 8.59375 14.761719 8.582031 14.761719 8.574219 14.761719 C 8.5625 14.761719 8.550781 14.761719 8.539063 14.761719 Z "/>
</g>
</svg>
