<?xml version="1.0" encoding="UTF-8"?>
<svg xmlns="http://www.w3.org/2000/svg" xmlns:xlink="http://www.w3.org/1999/xlink" width="18pt" height="18pt" viewBox="0 0 18 18" version="1.1">
<g id="surface1">
<path style=" stroke:none;fill-rule:nonzero;fill:#000000;fill-opacity:1;" d="M 2.746094 0.71875 C 1.691406 0.71875 0.96875 1.164063 0.550781 1.710938 C 0.136719 2.257813 0 2.878906 0 3.308594 C 0 4.0625 0.324219 5.234375 1.777344 5.882813 C 3.222656 6.527344 4.808594 6.832031 6.152344 8.820313 C 4.808594 10.8125 3.222656 11.113281 1.777344 11.757813 C 0.324219 12.40625 0 13.578125 0 14.332031 C 0 14.761719 0.136719 15.382813 0.550781 15.929688 C 0.96875 16.476563 1.691406 16.921875 2.746094 16.921875 C 3.839844 16.921875 4.585938 16.410156 5.007813 15.828125 C 5.429688 15.246094 5.558594 14.644531 5.558594 14.265625 C 5.558594 13.699219 5.351563 12.992188 4.847656 12.542969 C 4.890625 12.507813 4.957031 12.445313 5.0625 12.386719 C 5.0625 12.386719 5.074219 12.386719 5.074219 12.386719 C 5.6875 12.054688 7.851563 10.738281 8.078125 10.597656 L 8.855469 11.148438 L 13.769531 14.679688 L 13.78125 14.679688 C 13.792969 14.691406 14.320313 15.089844 15.085938 15.3125 C 15.859375 15.535156 16.925781 15.574219 17.863281 14.804688 C 17.953125 14.734375 18.003906 14.628906 18 14.515625 C 18 14.402344 17.945313 14.296875 17.855469 14.230469 L 11.125 9.269531 L 10.519531 8.820313 L 17.855469 3.410156 C 17.945313 3.34375 18 3.238281 18 3.125 C 18.003906 3.011719 17.953125 2.90625 17.863281 2.835938 C 17.398438 2.449219 16.894531 2.265625 16.414063 2.203125 C 15.933594 2.144531 15.472656 2.214844 15.085938 2.328125 C 14.320313 2.550781 13.792969 2.949219 13.78125 2.957031 C 13.78125 2.957031 13.769531 2.957031 13.769531 2.957031 L 8.078125 7.042969 C 7.851563 6.902344 5.679688 5.578125 5.074219 5.253906 C 4.964844 5.195313 4.894531 5.132813 4.847656 5.097656 C 5.351563 4.648438 5.558594 3.9375 5.558594 3.375 C 5.558594 2.996094 5.429688 2.390625 5.007813 1.8125 C 4.585938 1.230469 3.839844 0.71875 2.746094 0.71875 Z M 2.746094 1.441406 C 3.628906 1.441406 4.109375 1.808594 4.421875 2.238281 C 4.734375 2.671875 4.835938 3.207031 4.835938 3.375 C 4.835938 3.730469 4.613281 4.375 4.355469 4.589844 C 4.222656 4.699219 4.113281 4.839844 4.082031 5.015625 C 4.054688 5.195313 4.117188 5.367188 4.195313 5.480469 C 4.355469 5.699219 4.558594 5.796875 4.726563 5.882813 C 5.183594 6.128906 6.875 7.160156 7.4375 7.503906 L 6.648438 8.066406 C 6.613281 8.089844 6.582031 8.121094 6.558594 8.15625 C 5.113281 6.203125 3.351563 5.800781 2.070313 5.230469 C 0.859375 4.691406 0.71875 3.894531 0.71875 3.308594 C 0.71875 3.039063 0.828125 2.539063 1.125 2.148438 C 1.421875 1.757813 1.882813 1.441406 2.746094 1.441406 Z M 2.644531 2.070313 C 1.890625 2.070313 1.269531 2.722656 1.359375 3.488281 C 1.453125 4.25 2.132813 4.828125 2.890625 4.828125 C 3.683594 4.828125 4.207031 4.070313 4.117188 3.320313 C 4.027344 2.566406 3.363281 2.070313 2.644531 2.070313 Z M 2.644531 2.789063 C 3.042969 2.789063 3.363281 3.035156 3.410156 3.410156 C 3.453125 3.785156 3.21875 4.105469 2.890625 4.105469 C 2.53125 4.105469 2.125 3.761719 2.082031 3.398438 C 2.039063 3.035156 2.277344 2.789063 2.644531 2.789063 Z M 16.042969 2.902344 C 16.132813 2.902344 16.222656 2.902344 16.3125 2.914063 C 16.535156 2.941406 16.769531 3.023438 17 3.140625 L 7.964844 9.808594 C 7.882813 9.832031 7.808594 9.882813 7.761719 9.957031 C 7.613281 10.046875 5.246094 11.476563 4.726563 11.757813 C 4.558594 11.84375 4.355469 11.9375 4.195313 12.160156 C 4.117188 12.273438 4.054688 12.445313 4.082031 12.621094 C 4.113281 12.800781 4.222656 12.941406 4.355469 13.050781 C 4.613281 13.265625 4.835938 13.90625 4.835938 14.265625 C 4.835938 14.433594 4.734375 14.96875 4.421875 15.402344 C 4.109375 15.832031 3.628906 16.199219 2.746094 16.199219 C 1.882813 16.199219 1.421875 15.878906 1.125 15.492188 C 0.828125 15.101563 0.71875 14.601563 0.71875 14.332031 C 0.71875 13.746094 0.859375 12.949219 2.070313 12.410156 C 3.519531 11.761719 5.582031 11.304688 7.109375 8.617188 L 14.199219 3.542969 C 14.203125 3.539063 14.203125 3.535156 14.207031 3.53125 C 14.207031 3.53125 14.65625 3.199219 15.289063 3.015625 C 15.527344 2.945313 15.777344 2.902344 16.042969 2.902344 Z M 8.28125 8.246094 C 8.0625 8.246094 7.886719 8.421875 7.886719 8.640625 C 7.886719 8.859375 8.0625 9.035156 8.28125 9.035156 C 8.496094 9.035156 8.671875 8.859375 8.671875 8.640625 C 8.671875 8.421875 8.496094 8.246094 8.28125 8.246094 Z M 9.910156 9.269531 L 10.699219 9.84375 L 17 14.5 C 16.402344 14.804688 15.800781 14.773438 15.289063 14.625 C 14.65625 14.441406 14.207031 14.109375 14.207031 14.109375 C 14.203125 14.101563 14.203125 14.101563 14.199219 14.097656 L 9.269531 10.5625 L 8.695313 10.160156 Z M 2.890625 12.8125 C 2.132813 12.8125 1.453125 13.390625 1.359375 14.152344 C 1.269531 14.917969 1.890625 15.570313 2.644531 15.570313 C 3.363281 15.570313 4.027344 15.070313 4.117188 14.320313 C 4.207031 13.570313 3.683594 12.8125 2.890625 12.8125 Z M 2.890625 13.535156 C 3.21875 13.535156 3.453125 13.855469 3.410156 14.230469 C 3.363281 14.605469 3.042969 14.851563 2.644531 14.851563 C 2.277344 14.851563 2.039063 14.605469 2.082031 14.242188 C 2.125 13.882813 2.53125 13.535156 2.890625 13.535156 Z "/>
</g>
</svg>
