<?xml version="1.0" encoding="UTF-8"?>
<svg xmlns="http://www.w3.org/2000/svg" xmlns:xlink="http://www.w3.org/1999/xlink" width="18pt" height="18pt" viewBox="0 0 18 18" version="1.1">
<g id="surface1">
<path style=" stroke:none;fill-rule:nonzero;fill:#000000;fill-opacity:1;" d="M 0.933594 0.359375 C 0.421875 0.359375 0 0.78125 0 1.292969 L 0 12.386719 C 0 12.898438 0.421875 13.320313 0.933594 13.320313 L 9.898438 13.320313 L 9.179688 12.601563 L 0.933594 12.601563 C 0.8125 12.601563 0.71875 12.507813 0.71875 12.386719 L 0.71875 1.292969 C 0.71875 1.171875 0.8125 1.078125 0.933594 1.078125 L 17.066406 1.078125 C 17.1875 1.078125 17.28125 1.171875 17.28125 1.292969 L 17.28125 12.386719 C 17.28125 12.507813 17.1875 12.601563 17.066406 12.601563 L 14.941406 12.601563 L 15.660156 13.320313 L 17.066406 13.320313 C 17.578125 13.320313 18 12.898438 18 12.386719 L 18 1.292969 C 18 0.78125 17.578125 0.359375 17.066406 0.359375 Z M 1.800781 1.800781 L 1.800781 4.679688 L 3.238281 4.679688 L 3.238281 1.800781 Z M 4.320313 1.800781 L 4.320313 11.878906 L 8.460938 11.878906 L 7.738281 11.160156 L 5.039063 11.160156 L 5.039063 2.519531 L 15.839844 2.519531 L 15.839844 11.160156 L 13.5 11.160156 L 14.21875 11.878906 L 16.558594 11.878906 L 16.558594 1.800781 Z M 2.519531 5.398438 C 1.726563 5.398438 1.078125 6.046875 1.078125 6.839844 C 1.078125 7.632813 1.726563 8.28125 2.519531 8.28125 C 3.3125 8.28125 3.960938 7.632813 3.960938 6.839844 C 3.960938 6.046875 3.3125 5.398438 2.519531 5.398438 Z M 2.519531 6.121094 C 2.921875 6.121094 3.238281 6.4375 3.238281 6.839844 C 3.238281 7.242188 2.921875 7.558594 2.519531 7.558594 C 2.117188 7.558594 1.800781 7.242188 1.800781 6.839844 C 1.800781 6.4375 2.117188 6.121094 2.519531 6.121094 Z M 2.519531 6.480469 C 2.320313 6.480469 2.160156 6.640625 2.160156 6.839844 C 2.160156 7.039063 2.320313 7.199219 2.519531 7.199219 C 2.71875 7.199219 2.878906 7.039063 2.878906 6.839844 C 2.878906 6.640625 2.71875 6.480469 2.519531 6.480469 Z M 7.796875 7.921875 C 7.734375 7.921875 7.675781 7.941406 7.628906 7.988281 C 7.535156 8.082031 7.535156 8.242188 7.628906 8.335938 C 7.640625 8.351563 7.75 8.457031 7.851563 8.5625 L 7.808594 8.605469 C 7.703125 8.707031 7.671875 8.863281 7.730469 9 L 8.671875 11.328125 C 8.71875 11.429688 8.804688 11.503906 8.910156 11.53125 C 8.910156 11.53125 8.917969 11.542969 8.921875 11.542969 C 8.929688 11.542969 8.9375 11.542969 8.945313 11.542969 C 8.960938 11.546875 8.976563 11.558594 9 11.566406 C 9.054688 11.582031 9.128906 11.597656 9.214844 11.632813 C 9.382813 11.699219 9.578125 11.816406 9.664063 11.902344 L 14.671875 16.898438 C 14.785156 17.011719 14.960938 17.085938 15.121094 17.078125 C 15.1875 17.074219 15.246094 17.0625 15.300781 17.042969 L 15.605469 17.347656 C 15.984375 17.730469 16.605469 17.730469 16.988281 17.347656 C 17.367188 16.964844 17.367188 16.34375 16.988281 15.964844 L 16.683594 15.660156 C 16.703125 15.605469 16.714844 15.546875 16.71875 15.480469 C 16.722656 15.324219 16.652344 15.132813 16.539063 15.019531 L 11.542969 10.023438 C 11.351563 9.832031 11.183594 9.28125 11.183594 9.28125 C 11.167969 9.222656 11.136719 9.167969 11.09375 9.125 C 11.085938 9.117188 11.078125 9.109375 11.070313 9.101563 C 11.039063 9.074219 11.007813 9.050781 10.96875 9.035156 L 8.640625 8.089844 C 8.582031 8.0625 8.523438 8.050781 8.460938 8.054688 C 8.378906 8.066406 8.300781 8.105469 8.246094 8.167969 L 8.203125 8.210938 L 7.976563 7.988281 C 7.929688 7.941406 7.859375 7.921875 7.796875 7.921875 Z M 8.582031 8.84375 L 10.191406 9.496094 L 9.136719 10.550781 L 8.484375 8.945313 Z M 1.800781 9 L 1.800781 11.878906 L 3.238281 11.878906 L 3.238281 9 Z M 10.699219 10 C 10.78125 10.179688 10.863281 10.367188 11.023438 10.53125 L 15.976563 15.480469 C 15.972656 15.488281 15.980469 15.480469 15.976563 15.492188 C 15.960938 15.503906 15.949219 15.519531 15.941406 15.535156 C 15.871094 15.628906 15.734375 15.765625 15.570313 15.929688 C 15.4375 16.0625 15.324219 16.167969 15.234375 16.246094 C 15.1875 16.257813 15.144531 16.28125 15.109375 16.3125 L 10.171875 11.386719 C 10.003906 11.21875 9.820313 11.140625 9.640625 11.058594 Z M 11.519531 11.566406 C 11.429688 11.554688 11.347656 11.582031 11.285156 11.644531 C 11.160156 11.769531 11.179688 11.988281 11.328125 12.140625 C 11.378906 12.1875 12.097656 12.910156 12.148438 12.960938 C 12.300781 13.109375 12.519531 13.128906 12.644531 13.003906 C 12.773438 12.878906 12.75 12.660156 12.601563 12.511719 L 11.777344 11.6875 C 11.703125 11.613281 11.609375 11.574219 11.519531 11.566406 Z M 16.265625 16.257813 L 16.480469 16.46875 C 16.585938 16.574219 16.585938 16.734375 16.480469 16.839844 C 16.375 16.945313 16.214844 16.945313 16.109375 16.839844 L 15.894531 16.628906 C 15.960938 16.570313 16.023438 16.511719 16.085938 16.449219 C 16.152344 16.382813 16.207031 16.320313 16.265625 16.257813 Z "/>
</g>
</svg>
