<?xml version="1.0" encoding="UTF-8"?>
<svg xmlns="http://www.w3.org/2000/svg" xmlns:xlink="http://www.w3.org/1999/xlink" width="18pt" height="18pt" viewBox="0 0 18 18" version="1.1">
<g id="surface1">
<path style=" stroke:none;fill-rule:nonzero;fill:#000000;fill-opacity:1;" d="M 12.9375 0 C 12.867188 0 12.800781 0.015625 12.734375 0.0351563 C 12.46875 0.109375 12.226563 0.285156 12.039063 0.527344 C 12.035156 0.53125 12.03125 0.535156 12.027344 0.539063 L 9.023438 4.746094 C 7.175781 4.320313 5.160156 4.804688 3.722656 6.242188 C 3.585938 6.382813 3.585938 6.609375 3.722656 6.75 L 6.402344 9.417969 L 0.078125 17.414063 C -0.0351563 17.558594 -0.0234375 17.765625 0.105469 17.894531 C 0.234375 18.023438 0.441406 18.035156 0.585938 17.921875 L 8.574219 11.597656 L 11.25 14.265625 C 11.390625 14.402344 11.617188 14.402344 11.757813 14.265625 C 13.214844 12.808594 13.691406 10.753906 13.230469 8.886719 L 17.449219 6.019531 C 17.453125 6.015625 17.457031 6.011719 17.460938 6.007813 C 17.707031 5.824219 17.875 5.597656 17.953125 5.332031 C 18.035156 5.066406 17.996094 4.730469 17.773438 4.511719 L 13.546875 0.226563 C 13.4375 0.113281 13.292969 0.0507813 13.152344 0.0234375 C 13.078125 0.0078125 13.007813 0 12.9375 0 Z M 13.003906 0.71875 C 13.019531 0.722656 13.019531 0.722656 13.027344 0.730469 L 17.269531 5.015625 C 17.285156 5.03125 17.292969 5.039063 17.269531 5.117188 C 17.246094 5.199219 17.160156 5.320313 17.03125 5.421875 L 17.019531 5.433594 L 12.644531 8.414063 C 12.640625 8.417969 12.636719 8.421875 12.632813 8.425781 L 12.609375 8.4375 C 12.492188 8.53125 12.441406 8.6875 12.488281 8.832031 C 12.957031 10.410156 12.597656 12.152344 11.464844 13.464844 L 4.523438 6.535156 C 5.820313 5.417969 7.539063 5.046875 9.101563 5.488281 C 9.25 5.53125 9.410156 5.472656 9.496094 5.34375 L 12.601563 0.96875 L 12.609375 0.957031 C 12.714844 0.828125 12.847656 0.753906 12.925781 0.730469 C 12.96875 0.71875 12.992188 0.71875 13.003906 0.71875 Z M 6.90625 9.933594 L 8.066406 11.082031 L 2.566406 15.433594 Z "/>
</g>
</svg>
