<?xml version="1.0" encoding="UTF-8"?>
<svg xmlns="http://www.w3.org/2000/svg" xmlns:xlink="http://www.w3.org/1999/xlink" width="18pt" height="18pt" viewBox="0 0 18 18" version="1.1">
<g id="surface1">
<path style=" stroke:none;fill-rule:nonzero;fill:#000000;fill-opacity:1;" d="M 1.441406 1.441406 L 1.441406 16.199219 C 1.441406 16.398438 1.601563 16.558594 1.800781 16.558594 L 16.199219 16.558594 C 16.398438 16.558594 16.558594 16.398438 16.558594 16.199219 L 16.558594 11.519531 L 15.839844 11.519531 L 15.839844 15.839844 L 2.160156 15.839844 L 2.160156 1.441406 Z M 13.675781 1.796875 C 13.53125 1.796875 13.398438 1.886719 13.34375 2.019531 C 13.289063 2.15625 13.320313 2.3125 13.425781 2.414063 L 14.972656 3.960938 L 12.609375 3.960938 C 9 3.871094 6.660156 4.820313 5.289063 6.625 C 3.921875 8.425781 3.539063 10.984375 3.601563 14.046875 C 3.605469 14.246094 3.769531 14.402344 3.96875 14.398438 C 4.164063 14.394531 4.324219 14.230469 4.320313 14.03125 C 4.261719 11.039063 4.65625 8.648438 5.863281 7.058594 C 7.070313 5.472656 9.113281 4.59375 12.589844 4.679688 L 14.972656 4.679688 L 13.425781 6.226563 C 13.332031 6.316406 13.292969 6.449219 13.328125 6.574219 C 13.359375 6.703125 13.457031 6.800781 13.585938 6.832031 C 13.710938 6.867188 13.84375 6.828125 13.933594 6.734375 L 16.347656 4.320313 L 13.933594 1.90625 C 13.867188 1.835938 13.773438 1.796875 13.675781 1.796875 Z "/>
</g>
</svg>
