<?xml version="1.0" encoding="UTF-8"?>
<svg xmlns="http://www.w3.org/2000/svg" xmlns:xlink="http://www.w3.org/1999/xlink" width="18pt" height="18pt" viewBox="0 0 18 18" version="1.1">
<g id="surface1">
<path style=" stroke:none;fill-rule:nonzero;fill:#000000;fill-opacity:1;" d="M 1.078125 1.441406 C 0.488281 1.441406 0 1.929688 0 2.519531 L 0 15.804688 C -0.0234375 15.890625 -0.015625 15.976563 0.0234375 16.054688 C 0.125 16.542969 0.5625 16.921875 1.078125 16.921875 L 15.121094 16.921875 C 15.65625 16.921875 16.097656 16.515625 16.175781 15.996094 C 16.179688 15.976563 16.1875 15.953125 16.1875 15.929688 C 16.1875 15.921875 16.1875 15.914063 16.1875 15.90625 L 16.199219 15.851563 C 16.199219 15.847656 16.199219 15.84375 16.199219 15.839844 L 17.988281 6.1875 L 18 6.152344 L 18 6.121094 C 18 5.527344 17.511719 5.039063 16.921875 5.039063 L 16.921875 3.960938 C 16.921875 3.367188 16.433594 2.878906 15.839844 2.878906 L 6.492188 2.878906 C 6.492188 2.882813 6.488281 2.878906 6.480469 2.878906 C 6.46875 2.871094 6.4375 2.84375 6.378906 2.777344 C 6.289063 2.675781 6.1875 2.507813 6.074219 2.328125 C 5.960938 2.148438 5.839844 1.957031 5.691406 1.789063 C 5.542969 1.621094 5.335938 1.441406 5.039063 1.441406 Z M 1.078125 2.160156 L 5.039063 2.160156 C 5.015625 2.160156 5.0625 2.160156 5.152344 2.261719 C 5.242188 2.363281 5.34375 2.53125 5.457031 2.710938 C 5.570313 2.890625 5.691406 3.082031 5.839844 3.25 C 5.984375 3.421875 6.183594 3.601563 6.480469 3.601563 L 15.839844 3.601563 C 16.042969 3.601563 16.199219 3.757813 16.199219 3.960938 L 16.199219 5.039063 L 2.878906 5.039063 C 2.3125 5.039063 1.863281 5.496094 1.824219 6.050781 L 1.8125 6.050781 L 1.800781 6.121094 L 0.71875 11.949219 L 0.71875 2.519531 C 0.71875 2.316406 0.878906 2.160156 1.078125 2.160156 Z M 2.878906 5.761719 L 16.921875 5.761719 C 17.121094 5.761719 17.28125 5.917969 17.28125 6.121094 L 15.515625 15.671875 L 15.503906 15.695313 C 15.5 15.707031 15.492188 15.722656 15.492188 15.738281 C 15.488281 15.753906 15.484375 15.769531 15.480469 15.785156 C 15.480469 15.789063 15.480469 15.800781 15.480469 15.804688 C 15.480469 15.808594 15.480469 15.8125 15.480469 15.816406 C 15.472656 15.835938 15.472656 15.855469 15.46875 15.875 C 15.46875 15.886719 15.46875 15.894531 15.46875 15.90625 C 15.46875 15.921875 15.46875 15.9375 15.46875 15.953125 C 15.421875 16.097656 15.285156 16.199219 15.121094 16.199219 L 1.078125 16.199219 C 0.878906 16.199219 0.71875 16.042969 0.71875 15.839844 L 2.507813 6.1875 L 2.519531 6.152344 L 2.519531 6.121094 C 2.519531 5.917969 2.675781 5.761719 2.878906 5.761719 Z "/>
</g>
</svg>
