<?xml version="1.0" encoding="UTF-8"?>
<svg xmlns="http://www.w3.org/2000/svg" xmlns:xlink="http://www.w3.org/1999/xlink" width="18pt" height="18pt" viewBox="0 0 18 18" version="1.1">
<g id="surface1">
<path style=" stroke:none;fill-rule:nonzero;fill:#000000;fill-opacity:1;" d="M 3.148438 3.148438 C 3.027344 3.148438 2.925781 3.25 2.925781 3.375 C 2.925781 3.5 3.027344 3.601563 3.148438 3.601563 C 3.273438 3.601563 3.375 3.5 3.375 3.375 C 3.375 3.25 3.273438 3.148438 3.148438 3.148438 Z M 4.050781 3.148438 C 3.925781 3.148438 3.824219 3.25 3.824219 3.375 C 3.824219 3.5 3.925781 3.601563 4.050781 3.601563 C 4.175781 3.601563 4.273438 3.5 4.273438 3.375 C 4.273438 3.25 4.175781 3.148438 4.050781 3.148438 Z M 4.949219 3.148438 C 4.824219 3.148438 4.726563 3.25 4.726563 3.375 C 4.726563 3.5 4.824219 3.601563 4.949219 3.601563 C 5.074219 3.601563 5.175781 3.5 5.175781 3.375 C 5.175781 3.25 5.074219 3.148438 4.949219 3.148438 Z M 5.851563 3.148438 C 5.726563 3.148438 5.625 3.25 5.625 3.375 C 5.625 3.5 5.726563 3.601563 5.851563 3.601563 C 5.972656 3.601563 6.074219 3.5 6.074219 3.375 C 6.074219 3.25 5.972656 3.148438 5.851563 3.148438 Z M 6.75 3.148438 C 6.625 3.148438 6.523438 3.25 6.523438 3.375 C 6.523438 3.5 6.625 3.601563 6.75 3.601563 C 6.875 3.601563 6.976563 3.5 6.976563 3.375 C 6.976563 3.25 6.875 3.148438 6.75 3.148438 Z M 7.648438 3.148438 C 7.527344 3.148438 7.425781 3.25 7.425781 3.375 C 7.425781 3.5 7.527344 3.601563 7.648438 3.601563 C 7.773438 3.601563 7.875 3.5 7.875 3.375 C 7.875 3.25 7.773438 3.148438 7.648438 3.148438 Z M 8.550781 3.148438 C 8.425781 3.148438 8.324219 3.25 8.324219 3.375 C 8.324219 3.5 8.425781 3.601563 8.550781 3.601563 C 8.675781 3.601563 8.773438 3.5 8.773438 3.375 C 8.773438 3.25 8.675781 3.148438 8.550781 3.148438 Z M 9.449219 3.148438 C 9.324219 3.148438 9.226563 3.25 9.226563 3.375 C 9.226563 3.5 9.324219 3.601563 9.449219 3.601563 C 9.574219 3.601563 9.675781 3.5 9.675781 3.375 C 9.675781 3.25 9.574219 3.148438 9.449219 3.148438 Z M 10.351563 3.148438 C 10.226563 3.148438 10.125 3.25 10.125 3.375 C 10.125 3.5 10.226563 3.601563 10.351563 3.601563 C 10.472656 3.601563 10.574219 3.5 10.574219 3.375 C 10.574219 3.25 10.472656 3.148438 10.351563 3.148438 Z M 11.25 3.148438 C 11.125 3.148438 11.023438 3.25 11.023438 3.375 C 11.023438 3.5 11.125 3.601563 11.25 3.601563 C 11.375 3.601563 11.476563 3.5 11.476563 3.375 C 11.476563 3.25 11.375 3.148438 11.25 3.148438 Z M 12.148438 3.148438 C 12.027344 3.148438 11.925781 3.25 11.925781 3.375 C 11.925781 3.5 12.027344 3.601563 12.148438 3.601563 C 12.273438 3.601563 12.375 3.5 12.375 3.375 C 12.375 3.25 12.273438 3.148438 12.148438 3.148438 Z M 13.050781 3.148438 C 12.925781 3.148438 12.824219 3.25 12.824219 3.375 C 12.824219 3.5 12.925781 3.601563 13.050781 3.601563 C 13.175781 3.601563 13.273438 3.5 13.273438 3.375 C 13.273438 3.25 13.175781 3.148438 13.050781 3.148438 Z M 13.949219 3.148438 C 13.824219 3.148438 13.726563 3.25 13.726563 3.375 C 13.726563 3.5 13.824219 3.601563 13.949219 3.601563 C 14.074219 3.601563 14.175781 3.5 14.175781 3.375 C 14.175781 3.25 14.074219 3.148438 13.949219 3.148438 Z M 14.851563 3.148438 C 14.726563 3.148438 14.625 3.25 14.625 3.375 C 14.625 3.5 14.726563 3.601563 14.851563 3.601563 C 14.972656 3.601563 15.074219 3.5 15.074219 3.375 C 15.074219 3.25 14.972656 3.148438 14.851563 3.148438 Z M 3.148438 4.050781 C 3.027344 4.050781 2.925781 4.152344 2.925781 4.273438 C 2.925781 4.398438 3.027344 4.5 3.148438 4.5 C 3.273438 4.5 3.375 4.398438 3.375 4.273438 C 3.375 4.152344 3.273438 4.050781 3.148438 4.050781 Z M 14.851563 4.050781 C 14.726563 4.050781 14.625 4.152344 14.625 4.273438 C 14.625 4.398438 14.726563 4.5 14.851563 4.5 C 14.972656 4.5 15.074219 4.398438 15.074219 4.273438 C 15.074219 4.152344 14.972656 4.050781 14.851563 4.050781 Z M 3.148438 4.949219 C 3.027344 4.949219 2.925781 5.050781 2.925781 5.175781 C 2.925781 5.300781 3.027344 5.398438 3.148438 5.398438 C 3.273438 5.398438 3.375 5.300781 3.375 5.175781 C 3.375 5.050781 3.273438 4.949219 3.148438 4.949219 Z M 14.851563 4.949219 C 14.726563 4.949219 14.625 5.050781 14.625 5.175781 C 14.625 5.300781 14.726563 5.398438 14.851563 5.398438 C 14.972656 5.398438 15.074219 5.300781 15.074219 5.175781 C 15.074219 5.050781 14.972656 4.949219 14.851563 4.949219 Z M 6.074219 5.625 L 6.074219 6.976563 L 8.101563 6.976563 L 8.101563 12.375 L 9.898438 12.375 L 9.898438 6.976563 L 11.925781 6.976563 L 11.925781 5.625 Z M 3.148438 5.851563 C 3.027344 5.851563 2.925781 5.949219 2.925781 6.074219 C 2.925781 6.199219 3.027344 6.300781 3.148438 6.300781 C 3.273438 6.300781 3.375 6.199219 3.375 6.074219 C 3.375 5.949219 3.273438 5.851563 3.148438 5.851563 Z M 14.851563 5.851563 C 14.726563 5.851563 14.625 5.949219 14.625 6.074219 C 14.625 6.199219 14.726563 6.300781 14.851563 6.300781 C 14.972656 6.300781 15.074219 6.199219 15.074219 6.074219 C 15.074219 5.949219 14.972656 5.851563 14.851563 5.851563 Z M 6.523438 6.074219 L 11.476563 6.074219 L 11.476563 6.523438 L 9.449219 6.523438 L 9.449219 11.925781 L 8.550781 11.925781 L 8.550781 6.523438 L 6.523438 6.523438 Z M 3.148438 6.75 C 3.027344 6.75 2.925781 6.851563 2.925781 6.976563 C 2.925781 7.097656 3.027344 7.199219 3.148438 7.199219 C 3.273438 7.199219 3.375 7.097656 3.375 6.976563 C 3.375 6.851563 3.273438 6.75 3.148438 6.75 Z M 14.851563 6.75 C 14.726563 6.75 14.625 6.851563 14.625 6.976563 C 14.625 7.097656 14.726563 7.199219 14.851563 7.199219 C 14.972656 7.199219 15.074219 7.097656 15.074219 6.976563 C 15.074219 6.851563 14.972656 6.75 14.851563 6.75 Z M 3.148438 7.648438 C 3.027344 7.648438 2.925781 7.75 2.925781 7.875 L 2.023438 7.875 L 2.023438 10.125 L 2.925781 10.125 C 2.925781 10.25 3.027344 10.351563 3.148438 10.351563 C 3.273438 10.351563 3.375 10.25 3.375 10.125 L 4.273438 10.125 L 4.273438 7.875 L 3.375 7.875 C 3.375 7.75 3.273438 7.648438 3.148438 7.648438 Z M 14.851563 7.648438 C 14.726563 7.648438 14.625 7.75 14.625 7.875 L 13.726563 7.875 L 13.726563 10.125 L 14.625 10.125 C 14.625 10.25 14.726563 10.351563 14.851563 10.351563 C 14.972656 10.351563 15.074219 10.25 15.074219 10.125 L 15.976563 10.125 L 15.976563 7.875 L 15.074219 7.875 C 15.074219 7.75 14.972656 7.648438 14.851563 7.648438 Z M 2.476563 8.324219 L 3.824219 8.324219 L 3.824219 9.675781 L 2.476563 9.675781 Z M 14.175781 8.324219 L 15.523438 8.324219 L 15.523438 9.675781 L 14.175781 9.675781 Z M 3.148438 10.800781 C 3.027344 10.800781 2.925781 10.902344 2.925781 11.023438 C 2.925781 11.148438 3.027344 11.25 3.148438 11.25 C 3.273438 11.25 3.375 11.148438 3.375 11.023438 C 3.375 10.902344 3.273438 10.800781 3.148438 10.800781 Z M 14.851563 10.800781 C 14.726563 10.800781 14.625 10.902344 14.625 11.023438 C 14.625 11.148438 14.726563 11.25 14.851563 11.25 C 14.972656 11.25 15.074219 11.148438 15.074219 11.023438 C 15.074219 10.902344 14.972656 10.800781 14.851563 10.800781 Z M 3.148438 11.699219 C 3.027344 11.699219 2.925781 11.800781 2.925781 11.925781 C 2.925781 12.050781 3.027344 12.148438 3.148438 12.148438 C 3.273438 12.148438 3.375 12.050781 3.375 11.925781 C 3.375 11.800781 3.273438 11.699219 3.148438 11.699219 Z M 14.851563 11.699219 C 14.726563 11.699219 14.625 11.800781 14.625 11.925781 C 14.625 12.050781 14.726563 12.148438 14.851563 12.148438 C 14.972656 12.148438 15.074219 12.050781 15.074219 11.925781 C 15.074219 11.800781 14.972656 11.699219 14.851563 11.699219 Z M 3.148438 12.601563 C 3.027344 12.601563 2.925781 12.699219 2.925781 12.824219 C 2.925781 12.949219 3.027344 13.050781 3.148438 13.050781 C 3.273438 13.050781 3.375 12.949219 3.375 12.824219 C 3.375 12.699219 3.273438 12.601563 3.148438 12.601563 Z M 14.851563 12.601563 C 14.726563 12.601563 14.625 12.699219 14.625 12.824219 C 14.625 12.949219 14.726563 13.050781 14.851563 13.050781 C 14.972656 13.050781 15.074219 12.949219 15.074219 12.824219 C 15.074219 12.699219 14.972656 12.601563 14.851563 12.601563 Z M 3.148438 13.5 C 3.027344 13.5 2.925781 13.601563 2.925781 13.726563 C 2.925781 13.847656 3.027344 13.949219 3.148438 13.949219 C 3.273438 13.949219 3.375 13.847656 3.375 13.726563 C 3.375 13.601563 3.273438 13.5 3.148438 13.5 Z M 14.851563 13.5 C 14.726563 13.5 14.625 13.601563 14.625 13.726563 C 14.625 13.847656 14.726563 13.949219 14.851563 13.949219 C 14.972656 13.949219 15.074219 13.847656 15.074219 13.726563 C 15.074219 13.601563 14.972656 13.5 14.851563 13.5 Z M 3.148438 14.398438 C 3.027344 14.398438 2.925781 14.5 2.925781 14.625 C 2.925781 14.75 3.027344 14.851563 3.148438 14.851563 C 3.273438 14.851563 3.375 14.75 3.375 14.625 C 3.375 14.5 3.273438 14.398438 3.148438 14.398438 Z M 4.050781 14.398438 C 3.925781 14.398438 3.824219 14.5 3.824219 14.625 C 3.824219 14.75 3.925781 14.851563 4.050781 14.851563 C 4.175781 14.851563 4.273438 14.75 4.273438 14.625 C 4.273438 14.5 4.175781 14.398438 4.050781 14.398438 Z M 4.949219 14.398438 C 4.824219 14.398438 4.726563 14.5 4.726563 14.625 C 4.726563 14.75 4.824219 14.851563 4.949219 14.851563 C 5.074219 14.851563 5.175781 14.75 5.175781 14.625 C 5.175781 14.5 5.074219 14.398438 4.949219 14.398438 Z M 5.851563 14.398438 C 5.726563 14.398438 5.625 14.5 5.625 14.625 C 5.625 14.75 5.726563 14.851563 5.851563 14.851563 C 5.972656 14.851563 6.074219 14.75 6.074219 14.625 C 6.074219 14.5 5.972656 14.398438 5.851563 14.398438 Z M 6.75 14.398438 C 6.625 14.398438 6.523438 14.5 6.523438 14.625 C 6.523438 14.75 6.625 14.851563 6.75 14.851563 C 6.875 14.851563 6.976563 14.75 6.976563 14.625 C 6.976563 14.5 6.875 14.398438 6.75 14.398438 Z M 7.648438 14.398438 C 7.527344 14.398438 7.425781 14.5 7.425781 14.625 C 7.425781 14.75 7.527344 14.851563 7.648438 14.851563 C 7.773438 14.851563 7.875 14.75 7.875 14.625 C 7.875 14.5 7.773438 14.398438 7.648438 14.398438 Z M 8.550781 14.398438 C 8.425781 14.398438 8.324219 14.5 8.324219 14.625 C 8.324219 14.75 8.425781 14.851563 8.550781 14.851563 C 8.675781 14.851563 8.773438 14.75 8.773438 14.625 C 8.773438 14.5 8.675781 14.398438 8.550781 14.398438 Z M 9.449219 14.398438 C 9.324219 14.398438 9.226563 14.5 9.226563 14.625 C 9.226563 14.75 9.324219 14.851563 9.449219 14.851563 C 9.574219 14.851563 9.675781 14.75 9.675781 14.625 C 9.675781 14.5 9.574219 14.398438 9.449219 14.398438 Z M 10.351563 14.398438 C 10.226563 14.398438 10.125 14.5 10.125 14.625 C 10.125 14.75 10.226563 14.851563 10.351563 14.851563 C 10.472656 14.851563 10.574219 14.75 10.574219 14.625 C 10.574219 14.5 10.472656 14.398438 10.351563 14.398438 Z M 11.25 14.398438 C 11.125 14.398438 11.023438 14.5 11.023438 14.625 C 11.023438 14.75 11.125 14.851563 11.25 14.851563 C 11.375 14.851563 11.476563 14.75 11.476563 14.625 C 11.476563 14.5 11.375 14.398438 11.25 14.398438 Z M 12.148438 14.398438 C 12.027344 14.398438 11.925781 14.5 11.925781 14.625 C 11.925781 14.75 12.027344 14.851563 12.148438 14.851563 C 12.273438 14.851563 12.375 14.75 12.375 14.625 C 12.375 14.5 12.273438 14.398438 12.148438 14.398438 Z M 13.050781 14.398438 C 12.925781 14.398438 12.824219 14.5 12.824219 14.625 C 12.824219 14.75 12.925781 14.851563 13.050781 14.851563 C 13.175781 14.851563 13.273438 14.75 13.273438 14.625 C 13.273438 14.5 13.175781 14.398438 13.050781 14.398438 Z M 13.949219 14.398438 C 13.824219 14.398438 13.726563 14.5 13.726563 14.625 C 13.726563 14.75 13.824219 14.851563 13.949219 14.851563 C 14.074219 14.851563 14.175781 14.75 14.175781 14.625 C 14.175781 14.5 14.074219 14.398438 13.949219 14.398438 Z M 14.851563 14.398438 C 14.726563 14.398438 14.625 14.5 14.625 14.625 C 14.625 14.75 14.726563 14.851563 14.851563 14.851563 C 14.972656 14.851563 15.074219 14.75 15.074219 14.625 C 15.074219 14.5 14.972656 14.398438 14.851563 14.398438 Z "/>
</g>
</svg>
