<?xml version="1.0" encoding="UTF-8"?>
<svg xmlns="http://www.w3.org/2000/svg" xmlns:xlink="http://www.w3.org/1999/xlink" width="18pt" height="18pt" viewBox="0 0 18 18" version="1.1">
<g id="surface1">
<path style=" stroke:none;fill-rule:nonzero;fill:#000000;fill-opacity:1;" d="M 13.859375 -0.0351563 C 13.753906 -0.03125 13.640625 -0.0234375 13.535156 -0.0117188 C 13.101563 0.0390625 12.65625 0.15625 12.230469 0.316406 C 11.375 0.632813 10.585938 1.113281 10.078125 1.621094 C 9.53125 2.167969 9.265625 2.835938 9.269531 3.519531 C 9.273438 4.113281 9.496094 4.714844 9.820313 5.289063 L 9 6.121094 C 8.894531 6.207031 8.84375 6.347656 8.875 6.480469 C 8.90625 6.613281 9.011719 6.71875 9.144531 6.75 C 9.28125 6.78125 9.417969 6.734375 9.507813 6.625 L 10.519531 5.613281 C 10.636719 5.492188 10.65625 5.304688 10.5625 5.164063 C 10.195313 4.59375 9.996094 4.03125 9.988281 3.519531 C 9.984375 3.011719 10.160156 2.550781 10.585938 2.125 C 10.980469 1.734375 11.722656 1.277344 12.488281 0.988281 C 12.96875 0.8125 13.425781 0.742188 13.847656 0.730469 L 12.488281 2.082031 C 12.484375 2.089844 12.480469 2.097656 12.476563 2.105469 C 12.105469 2.527344 12.089844 3.167969 12.488281 3.566406 L 14.398438 5.480469 C 14.402344 5.484375 14.40625 5.484375 14.410156 5.488281 C 14.832031 5.859375 15.476563 5.875 15.875 5.480469 L 17.234375 4.117188 C 17.222656 4.546875 17.15625 5.007813 16.976563 5.488281 C 16.691406 6.25 16.234375 6.984375 15.839844 7.378906 C 15.414063 7.804688 14.964844 7.960938 14.457031 7.953125 C 13.949219 7.945313 13.375 7.746094 12.78125 7.390625 C 12.636719 7.308594 12.457031 7.332031 12.339844 7.449219 L 11.765625 8.019531 C 11.625 8.160156 11.621094 8.390625 11.761719 8.53125 C 11.902344 8.675781 12.128906 8.679688 12.273438 8.539063 L 12.679688 8.132813 C 13.265625 8.449219 13.851563 8.664063 14.445313 8.671875 C 15.125 8.683594 15.800781 8.433594 16.347656 7.886719 C 16.851563 7.382813 17.332031 6.597656 17.652344 5.75 C 17.96875 4.898438 18.136719 3.976563 17.875 3.195313 C 17.835938 3.078125 17.738281 2.988281 17.617188 2.960938 C 17.492188 2.933594 17.367188 2.972656 17.28125 3.058594 L 15.367188 4.960938 C 15.265625 5.0625 15.058594 5.078125 14.90625 4.960938 C 14.898438 4.957031 14.890625 4.957031 14.882813 4.949219 L 12.992188 3.058594 C 12.886719 2.953125 12.882813 2.730469 13.015625 2.578125 L 14.90625 0.6875 C 14.996094 0.597656 15.03125 0.472656 15.003906 0.351563 C 14.976563 0.230469 14.890625 0.128906 14.769531 0.0898438 C 14.484375 -0.0078125 14.179688 -0.0429688 13.859375 -0.0351563 Z M 1.203125 0 C 1.128906 0.0117188 1.054688 0.046875 1 0.101563 L 0.101563 1 C -0.015625 1.117188 -0.0390625 1.296875 0.046875 1.441406 L 1.5625 4.074219 C 1.640625 4.195313 1.78125 4.261719 1.921875 4.242188 L 2.710938 4.117188 L 7.59375 9 L 7.414063 9.179688 C 7.015625 9.578125 7.015625 10.222656 7.414063 10.621094 L 7.660156 10.878906 C 7.949219 11.164063 8.34375 11.164063 8.695313 11.046875 L 9.304688 11.644531 C 9.261719 12.128906 9.40625 12.609375 9.753906 12.960938 L 14.140625 17.359375 C 15.03125 18.246094 16.46875 18.246094 17.359375 17.359375 C 17.359375 17.355469 17.359375 17.351563 17.359375 17.347656 C 18.210938 16.449219 18.222656 15.007813 17.359375 14.140625 L 12.960938 9.753906 C 12.597656 9.390625 12.113281 9.277344 11.644531 9.304688 L 11.046875 8.695313 C 11.164063 8.34375 11.164063 7.949219 10.878906 7.660156 L 10.621094 7.414063 C 10.421875 7.214844 10.160156 7.109375 9.898438 7.109375 C 9.636719 7.109375 9.378906 7.214844 9.179688 7.414063 L 9 7.59375 L 4.117188 2.710938 L 4.242188 1.921875 C 4.261719 1.78125 4.195313 1.640625 4.074219 1.5625 L 1.441406 0.046875 C 1.378906 0.0117188 1.308594 -0.00390625 1.238281 0 C 1.226563 0 1.214844 0 1.203125 0 Z M 1.328125 0.808594 L 3.5 2.058594 L 3.386719 2.789063 C 3.371094 2.902344 3.410156 3.011719 3.488281 3.09375 L 8.492188 8.101563 L 8.101563 8.492188 L 3.09375 3.488281 C 3.011719 3.410156 2.902344 3.371094 2.789063 3.386719 L 2.058594 3.5 L 0.808594 1.328125 Z M 9.898438 7.839844 C 9.980469 7.839844 10.058594 7.867188 10.113281 7.921875 L 10.359375 8.179688 C 10.480469 8.296875 10.476563 8.472656 10.382813 8.582031 C 10.257813 8.730469 10.269531 8.945313 10.40625 9.078125 L 11.226563 9.898438 C 11.308594 9.984375 11.425781 10.019531 11.542969 10 C 11.875 9.945313 12.222656 10.03125 12.453125 10.261719 L 16.839844 14.660156 C 17.414063 15.234375 17.421875 16.226563 16.839844 16.839844 C 16.21875 17.464844 15.28125 17.464844 14.660156 16.839844 L 10.261719 12.453125 C 10.019531 12.214844 9.925781 11.875 10 11.578125 C 10.035156 11.449219 9.996094 11.316406 9.898438 11.226563 L 9.078125 10.40625 C 8.945313 10.269531 8.730469 10.257813 8.582031 10.382813 C 8.472656 10.476563 8.296875 10.480469 8.179688 10.359375 L 7.921875 10.113281 C 7.8125 10.007813 7.8125 9.792969 7.921875 9.6875 L 9.6875 7.921875 C 9.738281 7.867188 9.820313 7.839844 9.898438 7.839844 Z M 6.367188 8.921875 C 6.285156 8.933594 6.210938 8.972656 6.152344 9.035156 L 4.445313 10.742188 C 4.199219 10.695313 3.957031 10.652344 3.710938 10.652344 C 1.683594 10.652344 0.0351563 12.304688 0.0351563 14.332031 C 0.0351563 16.363281 1.683594 18 3.710938 18 C 5.742188 18 7.378906 16.363281 7.378906 14.332031 C 7.378906 14.070313 7.320313 13.808594 7.257813 13.554688 L 8.492188 12.320313 C 8.636719 12.179688 8.636719 11.949219 8.5 11.808594 C 8.359375 11.664063 8.132813 11.660156 7.988281 11.800781 L 6.625 13.171875 C 6.523438 13.273438 6.488281 13.421875 6.535156 13.554688 C 6.625 13.796875 6.660156 14.035156 6.660156 14.332031 C 6.660156 15.976563 5.355469 17.28125 3.710938 17.28125 C 2.070313 17.28125 0.753906 15.976563 0.753906 14.332031 C 0.753906 12.691406 2.070313 11.375 3.710938 11.375 C 3.96875 11.375 4.230469 11.410156 4.488281 11.476563 C 4.609375 11.5 4.738281 11.464844 4.828125 11.375 L 6.660156 9.539063 C 6.765625 9.4375 6.800781 9.277344 6.742188 9.140625 C 6.683594 9.003906 6.550781 8.917969 6.402344 8.921875 C 6.390625 8.921875 6.378906 8.921875 6.367188 8.921875 Z M 11.417969 10.902344 L 10.902344 11.417969 L 15.222656 15.738281 L 15.738281 15.222656 Z M 4.09375 12.238281 C 4.074219 12.242188 4.058594 12.246094 4.039063 12.25 L 2.351563 12.722656 C 2.230469 12.757813 2.136719 12.851563 2.105469 12.972656 L 1.632813 14.660156 C 1.59375 14.785156 1.628906 14.925781 1.722656 15.019531 L 2.980469 16.277344 C 3.074219 16.367188 3.207031 16.402344 3.328125 16.367188 L 5.0625 15.894531 C 5.1875 15.863281 5.289063 15.765625 5.320313 15.636719 L 5.75 13.949219 C 5.785156 13.828125 5.75 13.691406 5.660156 13.601563 L 4.398438 12.339844 C 4.320313 12.261719 4.207031 12.222656 4.09375 12.238281 Z M 4.027344 13.003906 L 4.996094 13.972656 L 4.667969 15.265625 L 3.351563 15.613281 L 2.386719 14.648438 L 2.734375 13.355469 Z "/>
</g>
</svg>
