<?xml version="1.0" encoding="UTF-8"?>
<svg xmlns="http://www.w3.org/2000/svg" xmlns:xlink="http://www.w3.org/1999/xlink" width="18pt" height="18pt" viewBox="0 0 18 18" version="1.1">
<g id="surface1">
<path style=" stroke:none;fill-rule:nonzero;fill:#000000;fill-opacity:1;" d="M 0 2.160156 L 0 14.398438 L 6.121094 14.398438 L 6.121094 15.121094 L 3.238281 15.121094 C 3.230469 15.121094 3.21875 15.121094 3.207031 15.121094 C 3.007813 15.128906 2.851563 15.296875 2.863281 15.496094 C 2.871094 15.695313 3.042969 15.851563 3.238281 15.839844 L 14.761719 15.839844 C 14.890625 15.839844 15.011719 15.773438 15.078125 15.660156 C 15.140625 15.550781 15.140625 15.410156 15.078125 15.296875 C 15.011719 15.1875 14.890625 15.117188 14.761719 15.121094 L 11.878906 15.121094 L 11.878906 14.398438 L 18 14.398438 L 18 2.160156 Z M 0.71875 2.878906 L 17.28125 2.878906 L 17.28125 13.679688 L 0.71875 13.679688 Z M 1.800781 3.960938 L 1.800781 5.039063 L 3.238281 5.039063 L 3.238281 3.960938 Z M 14.761719 3.960938 L 14.761719 5.039063 L 16.199219 5.039063 L 16.199219 3.960938 Z M 1.800781 6.480469 L 1.800781 7.558594 L 3.238281 7.558594 L 3.238281 6.480469 Z M 14.761719 6.480469 L 14.761719 7.558594 L 16.199219 7.558594 L 16.199219 6.480469 Z M 1.800781 9 L 1.800781 10.078125 L 3.238281 10.078125 L 3.238281 9 Z M 14.761719 9 L 14.761719 10.078125 L 16.199219 10.078125 L 16.199219 9 Z M 1.800781 11.519531 L 1.800781 12.601563 L 3.238281 12.601563 L 3.238281 11.519531 Z M 14.761719 11.519531 L 14.761719 12.601563 L 16.199219 12.601563 L 16.199219 11.519531 Z M 6.839844 14.398438 L 11.160156 14.398438 L 11.160156 15.121094 L 6.839844 15.121094 Z "/>
</g>
</svg>
